<svg xmlns="http://www.w3.org/2000/svg" width="512" height="512" viewBox="0 0 512 512">
  <defs>
    <radialGradient id="bgGrad" cx="50%" cy="40%" r="70%">
      <stop offset="0%" stop-color="white" stop-opacity=".6"/>
      <stop offset="100%" stop-color="#ddf0ec" stop-opacity="1"/>
    </radialGradient>
    <radialGradient id="faceGrad" cx="40%" cy="35%" r="65%">
      <stop offset="0%" stop-color="white" stop-opacity=".35"/>
      <stop offset="100%" stop-color="#f0c9a0" stop-opacity="1"/>
    </radialGradient>
    <filter id="shadow" x="-10%" y="-10%" width="120%" height="120%">
      <feDropShadow dx="0" dy="4" stdDeviation="8" flood-color="#2b7a6b" flood-opacity=".18"/>
    </filter>
  </defs>

  <!-- Background -->
  <rect width="512" height="512" fill="url(#bgGrad)"/>

  <!-- Subtle dot pattern -->
  <circle cx="0" cy="0" r="1.5" fill="#2b7a6b" opacity=".07"/><circle cx="48" cy="0" r="1.5" fill="#2b7a6b" opacity=".07"/><circle cx="96" cy="0" r="1.5" fill="#2b7a6b" opacity=".07"/><circle cx="144" cy="0" r="1.5" fill="#2b7a6b" opacity=".07"/><circle cx="192" cy="0" r="1.5" fill="#2b7a6b" opacity=".07"/><circle cx="240" cy="0" r="1.5" fill="#2b7a6b" opacity=".07"/><circle cx="288" cy="0" r="1.5" fill="#2b7a6b" opacity=".07"/><circle cx="336" cy="0" r="1.5" fill="#2b7a6b" opacity=".07"/><circle cx="384" cy="0" r="1.5" fill="#2b7a6b" opacity=".07"/><circle cx="432" cy="0" r="1.5" fill="#2b7a6b" opacity=".07"/><circle cx="480" cy="0" r="1.5" fill="#2b7a6b" opacity=".07"/><circle cx="528" cy="0" r="1.5" fill="#2b7a6b" opacity=".07"/><circle cx="0" cy="48" r="1.5" fill="#2b7a6b" opacity=".07"/><circle cx="48" cy="48" r="1.5" fill="#2b7a6b" opacity=".07"/><circle cx="96" cy="48" r="1.5" fill="#2b7a6b" opacity=".07"/><circle cx="144" cy="48" r="1.5" fill="#2b7a6b" opacity=".07"/><circle cx="192" cy="48" r="1.5" fill="#2b7a6b" opacity=".07"/><circle cx="240" cy="48" r="1.5" fill="#2b7a6b" opacity=".07"/><circle cx="288" cy="48" r="1.5" fill="#2b7a6b" opacity=".07"/><circle cx="336" cy="48" r="1.5" fill="#2b7a6b" opacity=".07"/><circle cx="384" cy="48" r="1.5" fill="#2b7a6b" opacity=".07"/><circle cx="432" cy="48" r="1.5" fill="#2b7a6b" opacity=".07"/><circle cx="480" cy="48" r="1.5" fill="#2b7a6b" opacity=".07"/><circle cx="528" cy="48" r="1.5" fill="#2b7a6b" opacity=".07"/><circle cx="0" cy="96" r="1.5" fill="#2b7a6b" opacity=".07"/><circle cx="48" cy="96" r="1.5" fill="#2b7a6b" opacity=".07"/><circle cx="96" cy="96" r="1.5" fill="#2b7a6b" opacity=".07"/><circle cx="144" cy="96" r="1.5" fill="#2b7a6b" opacity=".07"/><circle cx="192" cy="96" r="1.5" fill="#2b7a6b" opacity=".07"/><circle cx="240" cy="96" r="1.5" fill="#2b7a6b" opacity=".07"/><circle cx="288" cy="96" r="1.5" fill="#2b7a6b" opacity=".07"/><circle cx="336" cy="96" r="1.5" fill="#2b7a6b" opacity=".07"/><circle cx="384" cy="96" r="1.5" fill="#2b7a6b" opacity=".07"/><circle cx="432" cy="96" r="1.5" fill="#2b7a6b" opacity=".07"/><circle cx="480" cy="96" r="1.5" fill="#2b7a6b" opacity=".07"/><circle cx="528" cy="96" r="1.5" fill="#2b7a6b" opacity=".07"/><circle cx="0" cy="144" r="1.5" fill="#2b7a6b" opacity=".07"/><circle cx="48" cy="144" r="1.5" fill="#2b7a6b" opacity=".07"/><circle cx="96" cy="144" r="1.5" fill="#2b7a6b" opacity=".07"/><circle cx="144" cy="144" r="1.5" fill="#2b7a6b" opacity=".07"/><circle cx="192" cy="144" r="1.5" fill="#2b7a6b" opacity=".07"/><circle cx="240" cy="144" r="1.5" fill="#2b7a6b" opacity=".07"/><circle cx="288" cy="144" r="1.5" fill="#2b7a6b" opacity=".07"/><circle cx="336" cy="144" r="1.5" fill="#2b7a6b" opacity=".07"/><circle cx="384" cy="144" r="1.5" fill="#2b7a6b" opacity=".07"/><circle cx="432" cy="144" r="1.5" fill="#2b7a6b" opacity=".07"/><circle cx="480" cy="144" r="1.5" fill="#2b7a6b" opacity=".07"/><circle cx="528" cy="144" r="1.5" fill="#2b7a6b" opacity=".07"/><circle cx="0" cy="192" r="1.5" fill="#2b7a6b" opacity=".07"/><circle cx="48" cy="192" r="1.5" fill="#2b7a6b" opacity=".07"/><circle cx="96" cy="192" r="1.5" fill="#2b7a6b" opacity=".07"/><circle cx="144" cy="192" r="1.5" fill="#2b7a6b" opacity=".07"/><circle cx="192" cy="192" r="1.5" fill="#2b7a6b" opacity=".07"/><circle cx="240" cy="192" r="1.5" fill="#2b7a6b" opacity=".07"/><circle cx="288" cy="192" r="1.5" fill="#2b7a6b" opacity=".07"/><circle cx="336" cy="192" r="1.5" fill="#2b7a6b" opacity=".07"/><circle cx="384" cy="192" r="1.5" fill="#2b7a6b" opacity=".07"/><circle cx="432" cy="192" r="1.5" fill="#2b7a6b" opacity=".07"/><circle cx="480" cy="192" r="1.5" fill="#2b7a6b" opacity=".07"/><circle cx="528" cy="192" r="1.5" fill="#2b7a6b" opacity=".07"/><circle cx="0" cy="240" r="1.5" fill="#2b7a6b" opacity=".07"/><circle cx="48" cy="240" r="1.5" fill="#2b7a6b" opacity=".07"/><circle cx="96" cy="240" r="1.5" fill="#2b7a6b" opacity=".07"/><circle cx="144" cy="240" r="1.5" fill="#2b7a6b" opacity=".07"/><circle cx="192" cy="240" r="1.5" fill="#2b7a6b" opacity=".07"/><circle cx="240" cy="240" r="1.5" fill="#2b7a6b" opacity=".07"/><circle cx="288" cy="240" r="1.5" fill="#2b7a6b" opacity=".07"/><circle cx="336" cy="240" r="1.5" fill="#2b7a6b" opacity=".07"/><circle cx="384" cy="240" r="1.5" fill="#2b7a6b" opacity=".07"/><circle cx="432" cy="240" r="1.5" fill="#2b7a6b" opacity=".07"/><circle cx="480" cy="240" r="1.5" fill="#2b7a6b" opacity=".07"/><circle cx="528" cy="240" r="1.5" fill="#2b7a6b" opacity=".07"/><circle cx="0" cy="288" r="1.5" fill="#2b7a6b" opacity=".07"/><circle cx="48" cy="288" r="1.5" fill="#2b7a6b" opacity=".07"/><circle cx="96" cy="288" r="1.5" fill="#2b7a6b" opacity=".07"/><circle cx="144" cy="288" r="1.5" fill="#2b7a6b" opacity=".07"/><circle cx="192" cy="288" r="1.5" fill="#2b7a6b" opacity=".07"/><circle cx="240" cy="288" r="1.5" fill="#2b7a6b" opacity=".07"/><circle cx="288" cy="288" r="1.5" fill="#2b7a6b" opacity=".07"/><circle cx="336" cy="288" r="1.5" fill="#2b7a6b" opacity=".07"/><circle cx="384" cy="288" r="1.5" fill="#2b7a6b" opacity=".07"/><circle cx="432" cy="288" r="1.5" fill="#2b7a6b" opacity=".07"/><circle cx="480" cy="288" r="1.5" fill="#2b7a6b" opacity=".07"/><circle cx="528" cy="288" r="1.5" fill="#2b7a6b" opacity=".07"/><circle cx="0" cy="336" r="1.5" fill="#2b7a6b" opacity=".07"/><circle cx="48" cy="336" r="1.5" fill="#2b7a6b" opacity=".07"/><circle cx="96" cy="336" r="1.5" fill="#2b7a6b" opacity=".07"/><circle cx="144" cy="336" r="1.5" fill="#2b7a6b" opacity=".07"/><circle cx="192" cy="336" r="1.5" fill="#2b7a6b" opacity=".07"/><circle cx="240" cy="336" r="1.5" fill="#2b7a6b" opacity=".07"/><circle cx="288" cy="336" r="1.5" fill="#2b7a6b" opacity=".07"/><circle cx="336" cy="336" r="1.5" fill="#2b7a6b" opacity=".07"/><circle cx="384" cy="336" r="1.5" fill="#2b7a6b" opacity=".07"/><circle cx="432" cy="336" r="1.5" fill="#2b7a6b" opacity=".07"/><circle cx="480" cy="336" r="1.5" fill="#2b7a6b" opacity=".07"/><circle cx="528" cy="336" r="1.5" fill="#2b7a6b" opacity=".07"/><circle cx="0" cy="384" r="1.5" fill="#2b7a6b" opacity=".07"/><circle cx="48" cy="384" r="1.5" fill="#2b7a6b" opacity=".07"/><circle cx="96" cy="384" r="1.5" fill="#2b7a6b" opacity=".07"/><circle cx="144" cy="384" r="1.5" fill="#2b7a6b" opacity=".07"/><circle cx="192" cy="384" r="1.5" fill="#2b7a6b" opacity=".07"/><circle cx="240" cy="384" r="1.5" fill="#2b7a6b" opacity=".07"/><circle cx="288" cy="384" r="1.5" fill="#2b7a6b" opacity=".07"/><circle cx="336" cy="384" r="1.5" fill="#2b7a6b" opacity=".07"/><circle cx="384" cy="384" r="1.5" fill="#2b7a6b" opacity=".07"/><circle cx="432" cy="384" r="1.5" fill="#2b7a6b" opacity=".07"/><circle cx="480" cy="384" r="1.5" fill="#2b7a6b" opacity=".07"/><circle cx="528" cy="384" r="1.5" fill="#2b7a6b" opacity=".07"/><circle cx="0" cy="432" r="1.5" fill="#2b7a6b" opacity=".07"/><circle cx="48" cy="432" r="1.5" fill="#2b7a6b" opacity=".07"/><circle cx="96" cy="432" r="1.5" fill="#2b7a6b" opacity=".07"/><circle cx="144" cy="432" r="1.5" fill="#2b7a6b" opacity=".07"/><circle cx="192" cy="432" r="1.5" fill="#2b7a6b" opacity=".07"/><circle cx="240" cy="432" r="1.5" fill="#2b7a6b" opacity=".07"/><circle cx="288" cy="432" r="1.5" fill="#2b7a6b" opacity=".07"/><circle cx="336" cy="432" r="1.5" fill="#2b7a6b" opacity=".07"/><circle cx="384" cy="432" r="1.5" fill="#2b7a6b" opacity=".07"/><circle cx="432" cy="432" r="1.5" fill="#2b7a6b" opacity=".07"/><circle cx="480" cy="432" r="1.5" fill="#2b7a6b" opacity=".07"/><circle cx="528" cy="432" r="1.5" fill="#2b7a6b" opacity=".07"/><circle cx="0" cy="480" r="1.5" fill="#2b7a6b" opacity=".07"/><circle cx="48" cy="480" r="1.5" fill="#2b7a6b" opacity=".07"/><circle cx="96" cy="480" r="1.5" fill="#2b7a6b" opacity=".07"/><circle cx="144" cy="480" r="1.5" fill="#2b7a6b" opacity=".07"/><circle cx="192" cy="480" r="1.5" fill="#2b7a6b" opacity=".07"/><circle cx="240" cy="480" r="1.5" fill="#2b7a6b" opacity=".07"/><circle cx="288" cy="480" r="1.5" fill="#2b7a6b" opacity=".07"/><circle cx="336" cy="480" r="1.5" fill="#2b7a6b" opacity=".07"/><circle cx="384" cy="480" r="1.5" fill="#2b7a6b" opacity=".07"/><circle cx="432" cy="480" r="1.5" fill="#2b7a6b" opacity=".07"/><circle cx="480" cy="480" r="1.5" fill="#2b7a6b" opacity=".07"/><circle cx="528" cy="480" r="1.5" fill="#2b7a6b" opacity=".07"/><circle cx="0" cy="528" r="1.5" fill="#2b7a6b" opacity=".07"/><circle cx="48" cy="528" r="1.5" fill="#2b7a6b" opacity=".07"/><circle cx="96" cy="528" r="1.5" fill="#2b7a6b" opacity=".07"/><circle cx="144" cy="528" r="1.5" fill="#2b7a6b" opacity=".07"/><circle cx="192" cy="528" r="1.5" fill="#2b7a6b" opacity=".07"/><circle cx="240" cy="528" r="1.5" fill="#2b7a6b" opacity=".07"/><circle cx="288" cy="528" r="1.5" fill="#2b7a6b" opacity=".07"/><circle cx="336" cy="528" r="1.5" fill="#2b7a6b" opacity=".07"/><circle cx="384" cy="528" r="1.5" fill="#2b7a6b" opacity=".07"/><circle cx="432" cy="528" r="1.5" fill="#2b7a6b" opacity=".07"/><circle cx="480" cy="528" r="1.5" fill="#2b7a6b" opacity=".07"/><circle cx="528" cy="528" r="1.5" fill="#2b7a6b" opacity=".07"/>

  <!-- Decorative circles -->
  <circle cx="256" cy="260" r="155" fill="#2b7a6b" opacity=".06"/>
  <circle cx="256" cy="260" r="120" fill="#2b7a6b" opacity=".08"/>

  <!-- Body/outfit -->
  <g filter="url(#shadow)">
    
        <path d="M186,510 Q186,410 214,370 L256,390 L298,370 Q326,410 326,510" fill="rgb(107,162,151)"/>
        <path d="M214,370 Q201,350 186,390 L186,510" fill="rgb(170,202,196)"/>
        <path d="M298,370 Q311,350 326,390 L326,510" fill="rgb(170,202,196)"/>
        <line x1="191" y1="390" x2="321" y2="390" stroke="rgb(39,110,96)" stroke-width="1.5" opacity=".3"/><line x1="191" y1="408" x2="321" y2="408" stroke="rgb(39,110,96)" stroke-width="1.5" opacity=".3"/><line x1="191" y1="426" x2="321" y2="426" stroke="rgb(39,110,96)" stroke-width="1.5" opacity=".3"/><line x1="191" y1="444" x2="321" y2="444" stroke="rgb(39,110,96)" stroke-width="1.5" opacity=".3"/><line x1="191" y1="462" x2="321" y2="462" stroke="rgb(39,110,96)" stroke-width="1.5" opacity=".3"/><line x1="191" y1="480" x2="321" y2="480" stroke="rgb(39,110,96)" stroke-width="1.5" opacity=".3"/><line x1="191" y1="498" x2="321" y2="498" stroke="rgb(39,110,96)" stroke-width="1.5" opacity=".3"/><line x1="191" y1="516" x2="321" y2="516" stroke="rgb(39,110,96)" stroke-width="1.5" opacity=".3"/>
      
  </g>

  <!-- Hair (behind head) -->
  <g>
    
        <ellipse cx="256" cy="180" rx="52" ry="58" fill="rgb(30,85,75)"/>
        <path d="M206,220 Q191,260 201,290 Q181,270 196,240" fill="rgb(30,85,75)"/>
        <path d="M306,220 Q321,260 311,290 Q331,270 316,240" fill="rgb(30,85,75)"/>
        <ellipse cx="256" cy="142" rx="40" ry="12" fill="rgb(37,104,91)"/>
        <path d="M216,142 Q226,155 238,150" stroke="rgb(37,104,91)" stroke-width="8" fill="none" stroke-linecap="round"/>
        <path d="M296,142 Q286,155 274,150" stroke="rgb(37,104,91)" stroke-width="8" fill="none" stroke-linecap="round"/>
      
  </g>

  <!-- Head / face -->
  <ellipse cx="256" cy="210" rx="68" ry="72" fill="url(#faceGrad)" filter="url(#shadow)"/>

  <!-- Cheeks -->
  <ellipse cx="214" cy="232" rx="14" ry="8" fill="#f08888" opacity=".3"/>
  <ellipse cx="298" cy="232" rx="14" ry="8" fill="#f08888" opacity=".3"/>

  <!-- Eyes -->
  
        <ellipse cx="236" cy="198" rx="10" ry="9" fill="#2a2a2a"/>
        <ellipse cx="276" cy="198" rx="10" ry="9" fill="#2a2a2a"/>
        <ellipse cx="234" cy="196" rx="3.5" ry="3" fill="white" opacity=".7"/>
        <ellipse cx="274" cy="196" rx="3.5" ry="3" fill="white" opacity=".7"/>
      

  <!-- Nose -->
  <path d="M251,220 Q258,232 264,226" stroke="#c89070" stroke-width="1.5" fill="none" stroke-linecap="round"/>

  <!-- Mouth -->
  <path d="M242,242 Q256,254 270,242" stroke="#2a2a2a" stroke-width="2.5" fill="none" stroke-linecap="round"/>

  <!-- Accessory on face/head -->
  
  
  
  
  

  <!-- Camera as neck accessory for kiyosumi -->
  

  <!-- Prop held in front -->
  <g transform="translate(196, -10)">
        <rect x="56" y="235" width="48" height="60" rx="4" fill="#2b7a6b"/>
        <rect x="60" y="239" width="40" height="52" rx="3" fill="rgb(202,222,218)"/>
        <line x1="66" y1="250" x2="94" y2="250" stroke="#2b7a6b" stroke-width="2"/>
        <line x1="66" y1="258" x2="94" y2="258" stroke="#2b7a6b" stroke-width="2"/>
        <line x1="66" y1="266" x2="90" y2="266" stroke="#2b7a6b" stroke-width="2"/>
        <rect x="76" y="235" width="8" height="60" rx="2" fill="rgb(30,85,75)" opacity=".3"/>
      </g>
  

  <!-- Bottom color bar -->
  <rect x="0" y="460" width="512" height="52" fill="#2b7a6b"/>
  <rect x="0" y="457" width="512" height="3" fill="rgb(34,98,86)"/>
  <circle cx="40" cy="486" r="5" fill="white" opacity=".25"/><circle cx="102" cy="486" r="5" fill="white" opacity=".25"/><circle cx="164" cy="486" r="5" fill="white" opacity=".25"/><circle cx="226" cy="486" r="5" fill="white" opacity=".25"/><circle cx="288" cy="486" r="5" fill="white" opacity=".25"/><circle cx="350" cy="486" r="5" fill="white" opacity=".25"/><circle cx="412" cy="486" r="5" fill="white" opacity=".25"/><circle cx="474" cy="486" r="5" fill="white" opacity=".25"/>
</svg>