<svg xmlns="http://www.w3.org/2000/svg" width="512" height="512" viewBox="0 0 512 512">
  <defs>
    <radialGradient id="bgGrad" cx="50%" cy="40%" r="70%">
      <stop offset="0%" stop-color="white" stop-opacity=".6"/>
      <stop offset="100%" stop-color="#fde8e6" stop-opacity="1"/>
    </radialGradient>
    <radialGradient id="faceGrad" cx="40%" cy="35%" r="65%">
      <stop offset="0%" stop-color="white" stop-opacity=".35"/>
      <stop offset="100%" stop-color="#f5d5b8" stop-opacity="1"/>
    </radialGradient>
    <filter id="shadow" x="-10%" y="-10%" width="120%" height="120%">
      <feDropShadow dx="0" dy="4" stdDeviation="8" flood-color="#c0392b" flood-opacity=".18"/>
    </filter>
  </defs>

  <!-- Background -->
  <rect width="512" height="512" fill="url(#bgGrad)"/>

  <!-- Subtle dot pattern -->
  <circle cx="0" cy="0" r="1.5" fill="#c0392b" opacity=".07"/><circle cx="48" cy="0" r="1.5" fill="#c0392b" opacity=".07"/><circle cx="96" cy="0" r="1.5" fill="#c0392b" opacity=".07"/><circle cx="144" cy="0" r="1.5" fill="#c0392b" opacity=".07"/><circle cx="192" cy="0" r="1.5" fill="#c0392b" opacity=".07"/><circle cx="240" cy="0" r="1.5" fill="#c0392b" opacity=".07"/><circle cx="288" cy="0" r="1.5" fill="#c0392b" opacity=".07"/><circle cx="336" cy="0" r="1.5" fill="#c0392b" opacity=".07"/><circle cx="384" cy="0" r="1.5" fill="#c0392b" opacity=".07"/><circle cx="432" cy="0" r="1.5" fill="#c0392b" opacity=".07"/><circle cx="480" cy="0" r="1.5" fill="#c0392b" opacity=".07"/><circle cx="528" cy="0" r="1.5" fill="#c0392b" opacity=".07"/><circle cx="0" cy="48" r="1.5" fill="#c0392b" opacity=".07"/><circle cx="48" cy="48" r="1.5" fill="#c0392b" opacity=".07"/><circle cx="96" cy="48" r="1.5" fill="#c0392b" opacity=".07"/><circle cx="144" cy="48" r="1.5" fill="#c0392b" opacity=".07"/><circle cx="192" cy="48" r="1.5" fill="#c0392b" opacity=".07"/><circle cx="240" cy="48" r="1.5" fill="#c0392b" opacity=".07"/><circle cx="288" cy="48" r="1.5" fill="#c0392b" opacity=".07"/><circle cx="336" cy="48" r="1.5" fill="#c0392b" opacity=".07"/><circle cx="384" cy="48" r="1.5" fill="#c0392b" opacity=".07"/><circle cx="432" cy="48" r="1.5" fill="#c0392b" opacity=".07"/><circle cx="480" cy="48" r="1.5" fill="#c0392b" opacity=".07"/><circle cx="528" cy="48" r="1.5" fill="#c0392b" opacity=".07"/><circle cx="0" cy="96" r="1.5" fill="#c0392b" opacity=".07"/><circle cx="48" cy="96" r="1.5" fill="#c0392b" opacity=".07"/><circle cx="96" cy="96" r="1.5" fill="#c0392b" opacity=".07"/><circle cx="144" cy="96" r="1.5" fill="#c0392b" opacity=".07"/><circle cx="192" cy="96" r="1.5" fill="#c0392b" opacity=".07"/><circle cx="240" cy="96" r="1.5" fill="#c0392b" opacity=".07"/><circle cx="288" cy="96" r="1.5" fill="#c0392b" opacity=".07"/><circle cx="336" cy="96" r="1.5" fill="#c0392b" opacity=".07"/><circle cx="384" cy="96" r="1.5" fill="#c0392b" opacity=".07"/><circle cx="432" cy="96" r="1.5" fill="#c0392b" opacity=".07"/><circle cx="480" cy="96" r="1.5" fill="#c0392b" opacity=".07"/><circle cx="528" cy="96" r="1.5" fill="#c0392b" opacity=".07"/><circle cx="0" cy="144" r="1.5" fill="#c0392b" opacity=".07"/><circle cx="48" cy="144" r="1.5" fill="#c0392b" opacity=".07"/><circle cx="96" cy="144" r="1.5" fill="#c0392b" opacity=".07"/><circle cx="144" cy="144" r="1.5" fill="#c0392b" opacity=".07"/><circle cx="192" cy="144" r="1.5" fill="#c0392b" opacity=".07"/><circle cx="240" cy="144" r="1.5" fill="#c0392b" opacity=".07"/><circle cx="288" cy="144" r="1.5" fill="#c0392b" opacity=".07"/><circle cx="336" cy="144" r="1.5" fill="#c0392b" opacity=".07"/><circle cx="384" cy="144" r="1.5" fill="#c0392b" opacity=".07"/><circle cx="432" cy="144" r="1.5" fill="#c0392b" opacity=".07"/><circle cx="480" cy="144" r="1.5" fill="#c0392b" opacity=".07"/><circle cx="528" cy="144" r="1.5" fill="#c0392b" opacity=".07"/><circle cx="0" cy="192" r="1.5" fill="#c0392b" opacity=".07"/><circle cx="48" cy="192" r="1.5" fill="#c0392b" opacity=".07"/><circle cx="96" cy="192" r="1.5" fill="#c0392b" opacity=".07"/><circle cx="144" cy="192" r="1.5" fill="#c0392b" opacity=".07"/><circle cx="192" cy="192" r="1.5" fill="#c0392b" opacity=".07"/><circle cx="240" cy="192" r="1.5" fill="#c0392b" opacity=".07"/><circle cx="288" cy="192" r="1.5" fill="#c0392b" opacity=".07"/><circle cx="336" cy="192" r="1.5" fill="#c0392b" opacity=".07"/><circle cx="384" cy="192" r="1.5" fill="#c0392b" opacity=".07"/><circle cx="432" cy="192" r="1.5" fill="#c0392b" opacity=".07"/><circle cx="480" cy="192" r="1.5" fill="#c0392b" opacity=".07"/><circle cx="528" cy="192" r="1.5" fill="#c0392b" opacity=".07"/><circle cx="0" cy="240" r="1.5" fill="#c0392b" opacity=".07"/><circle cx="48" cy="240" r="1.5" fill="#c0392b" opacity=".07"/><circle cx="96" cy="240" r="1.5" fill="#c0392b" opacity=".07"/><circle cx="144" cy="240" r="1.5" fill="#c0392b" opacity=".07"/><circle cx="192" cy="240" r="1.5" fill="#c0392b" opacity=".07"/><circle cx="240" cy="240" r="1.5" fill="#c0392b" opacity=".07"/><circle cx="288" cy="240" r="1.5" fill="#c0392b" opacity=".07"/><circle cx="336" cy="240" r="1.5" fill="#c0392b" opacity=".07"/><circle cx="384" cy="240" r="1.5" fill="#c0392b" opacity=".07"/><circle cx="432" cy="240" r="1.5" fill="#c0392b" opacity=".07"/><circle cx="480" cy="240" r="1.5" fill="#c0392b" opacity=".07"/><circle cx="528" cy="240" r="1.5" fill="#c0392b" opacity=".07"/><circle cx="0" cy="288" r="1.5" fill="#c0392b" opacity=".07"/><circle cx="48" cy="288" r="1.5" fill="#c0392b" opacity=".07"/><circle cx="96" cy="288" r="1.5" fill="#c0392b" opacity=".07"/><circle cx="144" cy="288" r="1.5" fill="#c0392b" opacity=".07"/><circle cx="192" cy="288" r="1.5" fill="#c0392b" opacity=".07"/><circle cx="240" cy="288" r="1.5" fill="#c0392b" opacity=".07"/><circle cx="288" cy="288" r="1.5" fill="#c0392b" opacity=".07"/><circle cx="336" cy="288" r="1.5" fill="#c0392b" opacity=".07"/><circle cx="384" cy="288" r="1.5" fill="#c0392b" opacity=".07"/><circle cx="432" cy="288" r="1.5" fill="#c0392b" opacity=".07"/><circle cx="480" cy="288" r="1.5" fill="#c0392b" opacity=".07"/><circle cx="528" cy="288" r="1.5" fill="#c0392b" opacity=".07"/><circle cx="0" cy="336" r="1.5" fill="#c0392b" opacity=".07"/><circle cx="48" cy="336" r="1.5" fill="#c0392b" opacity=".07"/><circle cx="96" cy="336" r="1.5" fill="#c0392b" opacity=".07"/><circle cx="144" cy="336" r="1.5" fill="#c0392b" opacity=".07"/><circle cx="192" cy="336" r="1.5" fill="#c0392b" opacity=".07"/><circle cx="240" cy="336" r="1.5" fill="#c0392b" opacity=".07"/><circle cx="288" cy="336" r="1.5" fill="#c0392b" opacity=".07"/><circle cx="336" cy="336" r="1.5" fill="#c0392b" opacity=".07"/><circle cx="384" cy="336" r="1.5" fill="#c0392b" opacity=".07"/><circle cx="432" cy="336" r="1.5" fill="#c0392b" opacity=".07"/><circle cx="480" cy="336" r="1.5" fill="#c0392b" opacity=".07"/><circle cx="528" cy="336" r="1.5" fill="#c0392b" opacity=".07"/><circle cx="0" cy="384" r="1.5" fill="#c0392b" opacity=".07"/><circle cx="48" cy="384" r="1.5" fill="#c0392b" opacity=".07"/><circle cx="96" cy="384" r="1.5" fill="#c0392b" opacity=".07"/><circle cx="144" cy="384" r="1.5" fill="#c0392b" opacity=".07"/><circle cx="192" cy="384" r="1.5" fill="#c0392b" opacity=".07"/><circle cx="240" cy="384" r="1.5" fill="#c0392b" opacity=".07"/><circle cx="288" cy="384" r="1.5" fill="#c0392b" opacity=".07"/><circle cx="336" cy="384" r="1.5" fill="#c0392b" opacity=".07"/><circle cx="384" cy="384" r="1.5" fill="#c0392b" opacity=".07"/><circle cx="432" cy="384" r="1.5" fill="#c0392b" opacity=".07"/><circle cx="480" cy="384" r="1.5" fill="#c0392b" opacity=".07"/><circle cx="528" cy="384" r="1.5" fill="#c0392b" opacity=".07"/><circle cx="0" cy="432" r="1.5" fill="#c0392b" opacity=".07"/><circle cx="48" cy="432" r="1.5" fill="#c0392b" opacity=".07"/><circle cx="96" cy="432" r="1.5" fill="#c0392b" opacity=".07"/><circle cx="144" cy="432" r="1.5" fill="#c0392b" opacity=".07"/><circle cx="192" cy="432" r="1.5" fill="#c0392b" opacity=".07"/><circle cx="240" cy="432" r="1.5" fill="#c0392b" opacity=".07"/><circle cx="288" cy="432" r="1.5" fill="#c0392b" opacity=".07"/><circle cx="336" cy="432" r="1.5" fill="#c0392b" opacity=".07"/><circle cx="384" cy="432" r="1.5" fill="#c0392b" opacity=".07"/><circle cx="432" cy="432" r="1.5" fill="#c0392b" opacity=".07"/><circle cx="480" cy="432" r="1.5" fill="#c0392b" opacity=".07"/><circle cx="528" cy="432" r="1.5" fill="#c0392b" opacity=".07"/><circle cx="0" cy="480" r="1.5" fill="#c0392b" opacity=".07"/><circle cx="48" cy="480" r="1.5" fill="#c0392b" opacity=".07"/><circle cx="96" cy="480" r="1.5" fill="#c0392b" opacity=".07"/><circle cx="144" cy="480" r="1.5" fill="#c0392b" opacity=".07"/><circle cx="192" cy="480" r="1.5" fill="#c0392b" opacity=".07"/><circle cx="240" cy="480" r="1.5" fill="#c0392b" opacity=".07"/><circle cx="288" cy="480" r="1.5" fill="#c0392b" opacity=".07"/><circle cx="336" cy="480" r="1.5" fill="#c0392b" opacity=".07"/><circle cx="384" cy="480" r="1.5" fill="#c0392b" opacity=".07"/><circle cx="432" cy="480" r="1.5" fill="#c0392b" opacity=".07"/><circle cx="480" cy="480" r="1.5" fill="#c0392b" opacity=".07"/><circle cx="528" cy="480" r="1.5" fill="#c0392b" opacity=".07"/><circle cx="0" cy="528" r="1.5" fill="#c0392b" opacity=".07"/><circle cx="48" cy="528" r="1.5" fill="#c0392b" opacity=".07"/><circle cx="96" cy="528" r="1.5" fill="#c0392b" opacity=".07"/><circle cx="144" cy="528" r="1.5" fill="#c0392b" opacity=".07"/><circle cx="192" cy="528" r="1.5" fill="#c0392b" opacity=".07"/><circle cx="240" cy="528" r="1.5" fill="#c0392b" opacity=".07"/><circle cx="288" cy="528" r="1.5" fill="#c0392b" opacity=".07"/><circle cx="336" cy="528" r="1.5" fill="#c0392b" opacity=".07"/><circle cx="384" cy="528" r="1.5" fill="#c0392b" opacity=".07"/><circle cx="432" cy="528" r="1.5" fill="#c0392b" opacity=".07"/><circle cx="480" cy="528" r="1.5" fill="#c0392b" opacity=".07"/><circle cx="528" cy="528" r="1.5" fill="#c0392b" opacity=".07"/>

  <!-- Decorative circles -->
  <circle cx="256" cy="260" r="155" fill="#c0392b" opacity=".06"/>
  <circle cx="256" cy="260" r="120" fill="#c0392b" opacity=".08"/>

  <!-- Body/outfit -->
  <g filter="url(#shadow)">
    
        <path d="M186,510 Q186,410 214,370 L256,390 L298,370 Q326,410 326,510" fill="rgb(230,176,170)"/>
        <path d="M214,370 Q201,350 186,390 L186,510" fill="rgb(211,116,107)"/>
        <path d="M298,370 Q311,350 326,390 L326,510" fill="rgb(211,116,107)"/>
        <circle cx="231" cy="410" r="10" fill="#c0392b" opacity=".4"/>
        <circle cx="276" cy="440" r="8" fill="rgb(154,46,34)" opacity=".4"/>
        <circle cx="246" cy="465" r="12" fill="#c0392b" opacity=".35"/>
        <circle cx="281" cy="400" r="7" fill="rgb(163,48,37)" opacity=".4"/>
      
  </g>

  <!-- Hair (behind head) -->
  <g>
    
        <ellipse cx="256" cy="175" rx="50" ry="52" fill="rgb(134,40,30)"/>
        <path d="M236,130 L226,95 L246,125" fill="rgb(134,40,30)"/>
        <path d="M256,128 L251,90 L266,122" fill="rgb(134,40,30)"/>
        <path d="M276,130 L281,100 L291,128" fill="rgb(134,40,30)"/>
        <path d="M216,140 L201,110 L226,135" fill="rgb(134,40,30)"/>
        <path d="M296,140 L311,110 L286,135" fill="rgb(134,40,30)"/>
      
  </g>

  <!-- Head / face -->
  <ellipse cx="256" cy="210" rx="68" ry="72" fill="url(#faceGrad)" filter="url(#shadow)"/>

  <!-- Cheeks -->
  <ellipse cx="214" cy="232" rx="14" ry="8" fill="#f08888" opacity=".3"/>
  <ellipse cx="298" cy="232" rx="14" ry="8" fill="#f08888" opacity=".3"/>

  <!-- Eyes -->
  
        <ellipse cx="236" cy="198" rx="11" ry="9" fill="#1a1a1a"/>
        <ellipse cx="276" cy="198" rx="11" ry="9" fill="#1a1a1a"/>
        <ellipse cx="234" cy="196" rx="3.5" ry="3" fill="white" opacity=".6"/>
        <ellipse cx="274" cy="196" rx="3.5" ry="3" fill="white" opacity=".6"/>
        <path d="M223,185 L249,191" stroke="#1a1a1a" stroke-width="3" stroke-linecap="round"/>
        <path d="M263,191 L289,185" stroke="#1a1a1a" stroke-width="3" stroke-linecap="round"/>
      

  <!-- Nose -->
  <path d="M251,220 Q258,232 264,226" stroke="#c89070" stroke-width="1.5" fill="none" stroke-linecap="round"/>

  <!-- Mouth -->
  <path d="M248,244 Q264,238 276,242" stroke="#2a2a2a" stroke-width="2.5" fill="none" stroke-linecap="round"/>

  <!-- Accessory on face/head -->
  
  
  
        <path d="M204,152 Q256,138 308,152 L304,168 Q256,158 208,168 Z" fill="#c0392b" opacity=".8"/>
        <path d="M216,168 Q256,175 296,168" stroke="rgb(154,46,34)" stroke-width="1.5" fill="none"/>
      
  
  

  <!-- Camera as neck accessory for kiyosumi -->
  

  <!-- Prop held in front -->
  
  

  <!-- Bottom color bar -->
  <rect x="0" y="460" width="512" height="52" fill="#c0392b"/>
  <rect x="0" y="457" width="512" height="3" fill="rgb(154,46,34)"/>
  <circle cx="40" cy="486" r="5" fill="white" opacity=".25"/><circle cx="102" cy="486" r="5" fill="white" opacity=".25"/><circle cx="164" cy="486" r="5" fill="white" opacity=".25"/><circle cx="226" cy="486" r="5" fill="white" opacity=".25"/><circle cx="288" cy="486" r="5" fill="white" opacity=".25"/><circle cx="350" cy="486" r="5" fill="white" opacity=".25"/><circle cx="412" cy="486" r="5" fill="white" opacity=".25"/><circle cx="474" cy="486" r="5" fill="white" opacity=".25"/>
</svg>