<svg xmlns="http://www.w3.org/2000/svg" width="512" height="512" viewBox="0 0 512 512">
  <defs>
    <radialGradient id="bgGrad" cx="50%" cy="40%" r="70%">
      <stop offset="0%" stop-color="white" stop-opacity=".6"/>
      <stop offset="100%" stop-color="#d8f2eb" stop-opacity="1"/>
    </radialGradient>
    <radialGradient id="faceGrad" cx="40%" cy="35%" r="65%">
      <stop offset="0%" stop-color="white" stop-opacity=".35"/>
      <stop offset="100%" stop-color="#f0c9a0" stop-opacity="1"/>
    </radialGradient>
    <filter id="shadow" x="-10%" y="-10%" width="120%" height="120%">
      <feDropShadow dx="0" dy="4" stdDeviation="8" flood-color="#1e9e7a" flood-opacity=".18"/>
    </filter>
  </defs>

  <!-- Background -->
  <rect width="512" height="512" fill="url(#bgGrad)"/>

  <!-- Subtle dot pattern -->
  <circle cx="0" cy="0" r="1.5" fill="#1e9e7a" opacity=".07"/><circle cx="48" cy="0" r="1.5" fill="#1e9e7a" opacity=".07"/><circle cx="96" cy="0" r="1.5" fill="#1e9e7a" opacity=".07"/><circle cx="144" cy="0" r="1.5" fill="#1e9e7a" opacity=".07"/><circle cx="192" cy="0" r="1.5" fill="#1e9e7a" opacity=".07"/><circle cx="240" cy="0" r="1.5" fill="#1e9e7a" opacity=".07"/><circle cx="288" cy="0" r="1.5" fill="#1e9e7a" opacity=".07"/><circle cx="336" cy="0" r="1.5" fill="#1e9e7a" opacity=".07"/><circle cx="384" cy="0" r="1.5" fill="#1e9e7a" opacity=".07"/><circle cx="432" cy="0" r="1.5" fill="#1e9e7a" opacity=".07"/><circle cx="480" cy="0" r="1.5" fill="#1e9e7a" opacity=".07"/><circle cx="528" cy="0" r="1.5" fill="#1e9e7a" opacity=".07"/><circle cx="0" cy="48" r="1.5" fill="#1e9e7a" opacity=".07"/><circle cx="48" cy="48" r="1.5" fill="#1e9e7a" opacity=".07"/><circle cx="96" cy="48" r="1.5" fill="#1e9e7a" opacity=".07"/><circle cx="144" cy="48" r="1.5" fill="#1e9e7a" opacity=".07"/><circle cx="192" cy="48" r="1.5" fill="#1e9e7a" opacity=".07"/><circle cx="240" cy="48" r="1.5" fill="#1e9e7a" opacity=".07"/><circle cx="288" cy="48" r="1.5" fill="#1e9e7a" opacity=".07"/><circle cx="336" cy="48" r="1.5" fill="#1e9e7a" opacity=".07"/><circle cx="384" cy="48" r="1.5" fill="#1e9e7a" opacity=".07"/><circle cx="432" cy="48" r="1.5" fill="#1e9e7a" opacity=".07"/><circle cx="480" cy="48" r="1.5" fill="#1e9e7a" opacity=".07"/><circle cx="528" cy="48" r="1.5" fill="#1e9e7a" opacity=".07"/><circle cx="0" cy="96" r="1.5" fill="#1e9e7a" opacity=".07"/><circle cx="48" cy="96" r="1.5" fill="#1e9e7a" opacity=".07"/><circle cx="96" cy="96" r="1.5" fill="#1e9e7a" opacity=".07"/><circle cx="144" cy="96" r="1.5" fill="#1e9e7a" opacity=".07"/><circle cx="192" cy="96" r="1.5" fill="#1e9e7a" opacity=".07"/><circle cx="240" cy="96" r="1.5" fill="#1e9e7a" opacity=".07"/><circle cx="288" cy="96" r="1.5" fill="#1e9e7a" opacity=".07"/><circle cx="336" cy="96" r="1.5" fill="#1e9e7a" opacity=".07"/><circle cx="384" cy="96" r="1.5" fill="#1e9e7a" opacity=".07"/><circle cx="432" cy="96" r="1.5" fill="#1e9e7a" opacity=".07"/><circle cx="480" cy="96" r="1.5" fill="#1e9e7a" opacity=".07"/><circle cx="528" cy="96" r="1.5" fill="#1e9e7a" opacity=".07"/><circle cx="0" cy="144" r="1.5" fill="#1e9e7a" opacity=".07"/><circle cx="48" cy="144" r="1.5" fill="#1e9e7a" opacity=".07"/><circle cx="96" cy="144" r="1.5" fill="#1e9e7a" opacity=".07"/><circle cx="144" cy="144" r="1.5" fill="#1e9e7a" opacity=".07"/><circle cx="192" cy="144" r="1.5" fill="#1e9e7a" opacity=".07"/><circle cx="240" cy="144" r="1.5" fill="#1e9e7a" opacity=".07"/><circle cx="288" cy="144" r="1.5" fill="#1e9e7a" opacity=".07"/><circle cx="336" cy="144" r="1.5" fill="#1e9e7a" opacity=".07"/><circle cx="384" cy="144" r="1.5" fill="#1e9e7a" opacity=".07"/><circle cx="432" cy="144" r="1.5" fill="#1e9e7a" opacity=".07"/><circle cx="480" cy="144" r="1.5" fill="#1e9e7a" opacity=".07"/><circle cx="528" cy="144" r="1.5" fill="#1e9e7a" opacity=".07"/><circle cx="0" cy="192" r="1.5" fill="#1e9e7a" opacity=".07"/><circle cx="48" cy="192" r="1.5" fill="#1e9e7a" opacity=".07"/><circle cx="96" cy="192" r="1.5" fill="#1e9e7a" opacity=".07"/><circle cx="144" cy="192" r="1.5" fill="#1e9e7a" opacity=".07"/><circle cx="192" cy="192" r="1.5" fill="#1e9e7a" opacity=".07"/><circle cx="240" cy="192" r="1.5" fill="#1e9e7a" opacity=".07"/><circle cx="288" cy="192" r="1.5" fill="#1e9e7a" opacity=".07"/><circle cx="336" cy="192" r="1.5" fill="#1e9e7a" opacity=".07"/><circle cx="384" cy="192" r="1.5" fill="#1e9e7a" opacity=".07"/><circle cx="432" cy="192" r="1.5" fill="#1e9e7a" opacity=".07"/><circle cx="480" cy="192" r="1.5" fill="#1e9e7a" opacity=".07"/><circle cx="528" cy="192" r="1.5" fill="#1e9e7a" opacity=".07"/><circle cx="0" cy="240" r="1.5" fill="#1e9e7a" opacity=".07"/><circle cx="48" cy="240" r="1.5" fill="#1e9e7a" opacity=".07"/><circle cx="96" cy="240" r="1.5" fill="#1e9e7a" opacity=".07"/><circle cx="144" cy="240" r="1.5" fill="#1e9e7a" opacity=".07"/><circle cx="192" cy="240" r="1.5" fill="#1e9e7a" opacity=".07"/><circle cx="240" cy="240" r="1.5" fill="#1e9e7a" opacity=".07"/><circle cx="288" cy="240" r="1.5" fill="#1e9e7a" opacity=".07"/><circle cx="336" cy="240" r="1.5" fill="#1e9e7a" opacity=".07"/><circle cx="384" cy="240" r="1.5" fill="#1e9e7a" opacity=".07"/><circle cx="432" cy="240" r="1.5" fill="#1e9e7a" opacity=".07"/><circle cx="480" cy="240" r="1.5" fill="#1e9e7a" opacity=".07"/><circle cx="528" cy="240" r="1.5" fill="#1e9e7a" opacity=".07"/><circle cx="0" cy="288" r="1.5" fill="#1e9e7a" opacity=".07"/><circle cx="48" cy="288" r="1.5" fill="#1e9e7a" opacity=".07"/><circle cx="96" cy="288" r="1.5" fill="#1e9e7a" opacity=".07"/><circle cx="144" cy="288" r="1.5" fill="#1e9e7a" opacity=".07"/><circle cx="192" cy="288" r="1.5" fill="#1e9e7a" opacity=".07"/><circle cx="240" cy="288" r="1.5" fill="#1e9e7a" opacity=".07"/><circle cx="288" cy="288" r="1.5" fill="#1e9e7a" opacity=".07"/><circle cx="336" cy="288" r="1.5" fill="#1e9e7a" opacity=".07"/><circle cx="384" cy="288" r="1.5" fill="#1e9e7a" opacity=".07"/><circle cx="432" cy="288" r="1.5" fill="#1e9e7a" opacity=".07"/><circle cx="480" cy="288" r="1.5" fill="#1e9e7a" opacity=".07"/><circle cx="528" cy="288" r="1.5" fill="#1e9e7a" opacity=".07"/><circle cx="0" cy="336" r="1.5" fill="#1e9e7a" opacity=".07"/><circle cx="48" cy="336" r="1.5" fill="#1e9e7a" opacity=".07"/><circle cx="96" cy="336" r="1.5" fill="#1e9e7a" opacity=".07"/><circle cx="144" cy="336" r="1.5" fill="#1e9e7a" opacity=".07"/><circle cx="192" cy="336" r="1.5" fill="#1e9e7a" opacity=".07"/><circle cx="240" cy="336" r="1.5" fill="#1e9e7a" opacity=".07"/><circle cx="288" cy="336" r="1.5" fill="#1e9e7a" opacity=".07"/><circle cx="336" cy="336" r="1.5" fill="#1e9e7a" opacity=".07"/><circle cx="384" cy="336" r="1.5" fill="#1e9e7a" opacity=".07"/><circle cx="432" cy="336" r="1.5" fill="#1e9e7a" opacity=".07"/><circle cx="480" cy="336" r="1.5" fill="#1e9e7a" opacity=".07"/><circle cx="528" cy="336" r="1.5" fill="#1e9e7a" opacity=".07"/><circle cx="0" cy="384" r="1.5" fill="#1e9e7a" opacity=".07"/><circle cx="48" cy="384" r="1.5" fill="#1e9e7a" opacity=".07"/><circle cx="96" cy="384" r="1.5" fill="#1e9e7a" opacity=".07"/><circle cx="144" cy="384" r="1.5" fill="#1e9e7a" opacity=".07"/><circle cx="192" cy="384" r="1.5" fill="#1e9e7a" opacity=".07"/><circle cx="240" cy="384" r="1.5" fill="#1e9e7a" opacity=".07"/><circle cx="288" cy="384" r="1.5" fill="#1e9e7a" opacity=".07"/><circle cx="336" cy="384" r="1.5" fill="#1e9e7a" opacity=".07"/><circle cx="384" cy="384" r="1.5" fill="#1e9e7a" opacity=".07"/><circle cx="432" cy="384" r="1.5" fill="#1e9e7a" opacity=".07"/><circle cx="480" cy="384" r="1.5" fill="#1e9e7a" opacity=".07"/><circle cx="528" cy="384" r="1.5" fill="#1e9e7a" opacity=".07"/><circle cx="0" cy="432" r="1.5" fill="#1e9e7a" opacity=".07"/><circle cx="48" cy="432" r="1.5" fill="#1e9e7a" opacity=".07"/><circle cx="96" cy="432" r="1.5" fill="#1e9e7a" opacity=".07"/><circle cx="144" cy="432" r="1.5" fill="#1e9e7a" opacity=".07"/><circle cx="192" cy="432" r="1.5" fill="#1e9e7a" opacity=".07"/><circle cx="240" cy="432" r="1.5" fill="#1e9e7a" opacity=".07"/><circle cx="288" cy="432" r="1.5" fill="#1e9e7a" opacity=".07"/><circle cx="336" cy="432" r="1.5" fill="#1e9e7a" opacity=".07"/><circle cx="384" cy="432" r="1.5" fill="#1e9e7a" opacity=".07"/><circle cx="432" cy="432" r="1.5" fill="#1e9e7a" opacity=".07"/><circle cx="480" cy="432" r="1.5" fill="#1e9e7a" opacity=".07"/><circle cx="528" cy="432" r="1.5" fill="#1e9e7a" opacity=".07"/><circle cx="0" cy="480" r="1.5" fill="#1e9e7a" opacity=".07"/><circle cx="48" cy="480" r="1.5" fill="#1e9e7a" opacity=".07"/><circle cx="96" cy="480" r="1.5" fill="#1e9e7a" opacity=".07"/><circle cx="144" cy="480" r="1.5" fill="#1e9e7a" opacity=".07"/><circle cx="192" cy="480" r="1.5" fill="#1e9e7a" opacity=".07"/><circle cx="240" cy="480" r="1.5" fill="#1e9e7a" opacity=".07"/><circle cx="288" cy="480" r="1.5" fill="#1e9e7a" opacity=".07"/><circle cx="336" cy="480" r="1.5" fill="#1e9e7a" opacity=".07"/><circle cx="384" cy="480" r="1.5" fill="#1e9e7a" opacity=".07"/><circle cx="432" cy="480" r="1.5" fill="#1e9e7a" opacity=".07"/><circle cx="480" cy="480" r="1.5" fill="#1e9e7a" opacity=".07"/><circle cx="528" cy="480" r="1.5" fill="#1e9e7a" opacity=".07"/><circle cx="0" cy="528" r="1.5" fill="#1e9e7a" opacity=".07"/><circle cx="48" cy="528" r="1.5" fill="#1e9e7a" opacity=".07"/><circle cx="96" cy="528" r="1.5" fill="#1e9e7a" opacity=".07"/><circle cx="144" cy="528" r="1.5" fill="#1e9e7a" opacity=".07"/><circle cx="192" cy="528" r="1.5" fill="#1e9e7a" opacity=".07"/><circle cx="240" cy="528" r="1.5" fill="#1e9e7a" opacity=".07"/><circle cx="288" cy="528" r="1.5" fill="#1e9e7a" opacity=".07"/><circle cx="336" cy="528" r="1.5" fill="#1e9e7a" opacity=".07"/><circle cx="384" cy="528" r="1.5" fill="#1e9e7a" opacity=".07"/><circle cx="432" cy="528" r="1.5" fill="#1e9e7a" opacity=".07"/><circle cx="480" cy="528" r="1.5" fill="#1e9e7a" opacity=".07"/><circle cx="528" cy="528" r="1.5" fill="#1e9e7a" opacity=".07"/>

  <!-- Decorative circles -->
  <circle cx="256" cy="260" r="155" fill="#1e9e7a" opacity=".06"/>
  <circle cx="256" cy="260" r="120" fill="#1e9e7a" opacity=".08"/>

  <!-- Body/outfit -->
  <g filter="url(#shadow)">
    
        <path d="M186,510 Q186,410 214,370 L256,390 L298,370 Q326,410 326,510" fill="rgb(98,187,162)"/>
        <rect x="226" y="375" width="60" height="130" rx="5" fill="rgb(27,142,110)" opacity=".8"/>
        <rect x="236" y="400" width="40" height="50" rx="4" fill="rgb(165,216,202)"/>
        <line x1="226" y1="375" x2="226" y2="345" stroke="rgb(27,142,110)" stroke-width="3"/>
        <line x1="286" y1="375" x2="286" y2="345" stroke="rgb(27,142,110)" stroke-width="3"/>
        <path d="M226,345 Q256,330 286,345" fill="none" stroke="rgb(27,142,110)" stroke-width="3"/>
      
  </g>

  <!-- Hair (behind head) -->
  <g>
    
        <ellipse cx="256" cy="172" rx="48" ry="50" fill="rgb(21,111,85)"/>
        <rect x="208" y="172" width="96" height="20" rx="5" fill="rgb(21,111,85)"/>
        <path d="M208,172 Q204,190 211,210" fill="rgb(21,111,85)"/>
        <path d="M304,172 Q308,190 301,210" fill="rgb(21,111,85)"/>
      
  </g>

  <!-- Head / face -->
  <ellipse cx="256" cy="210" rx="68" ry="72" fill="url(#faceGrad)" filter="url(#shadow)"/>

  <!-- Cheeks -->
  <ellipse cx="214" cy="232" rx="14" ry="8" fill="#f08888" opacity=".3"/>
  <ellipse cx="298" cy="232" rx="14" ry="8" fill="#f08888" opacity=".3"/>

  <!-- Eyes -->
  
        <ellipse cx="236" cy="198" rx="10" ry="9" fill="#1a1a1a"/>
        <ellipse cx="276" cy="198" rx="10" ry="9" fill="#1a1a1a"/>
        <ellipse cx="234" cy="196" rx="3" ry="2.5" fill="white" opacity=".6"/>
        <ellipse cx="274" cy="196" rx="3" ry="2.5" fill="white" opacity=".6"/>
        <path d="M224,187 L248,189" stroke="#1a1a1a" stroke-width="3" stroke-linecap="round"/>
        <path d="M264,189 L288,187" stroke="#1a1a1a" stroke-width="3" stroke-linecap="round"/>
      

  <!-- Nose -->
  <path d="M251,220 Q258,232 264,226" stroke="#c89070" stroke-width="1.5" fill="none" stroke-linecap="round"/>

  <!-- Mouth -->
  <path d="M244,242 L268,242" stroke="#2a2a2a" stroke-width="2.5" stroke-linecap="round"/>

  <!-- Accessory on face/head -->
  
        <circle cx="236" cy="198" r="13" fill="none" stroke="#555" stroke-width="2.5"/>
        <circle cx="276" cy="198" r="13" fill="none" stroke="#555" stroke-width="2.5"/>
        <line x1="249" y1="198" x2="263" y2="198" stroke="#555" stroke-width="2"/>
        <line x1="223" y1="198" x2="208" y2="203" stroke="#555" stroke-width="2"/>
        <line x1="289" y1="198" x2="304" y2="203" stroke="#555" stroke-width="2"/>
        <circle cx="236" cy="198" r="13" fill="#1e9e7a" opacity=".08"/>
        <circle cx="276" cy="198" r="13" fill="#1e9e7a" opacity=".08"/>
      
  
  
  
  

  <!-- Camera as neck accessory for kiyosumi -->
  

  <!-- Prop held in front -->
  <g transform="translate(196, -10)">
        <rect x="62" y="240" width="36" height="40" rx="6" fill="white" stroke="#ccc" stroke-width="1.5"/>
        <rect x="66" y="246" width="28" height="18" rx="3" fill="rgb(188,226,215)"/>
        <path d="M98,252 Q110,252 110,262 Q110,272 98,272" fill="none" stroke="#ccc" stroke-width="2"/>
        <circle cx="80" cy="255" r="4" fill="#1e9e7a" opacity=".5"/>
      </g>
  

  <!-- Bottom color bar -->
  <rect x="0" y="460" width="512" height="52" fill="#1e9e7a"/>
  <rect x="0" y="457" width="512" height="3" fill="rgb(24,126,98)"/>
  <circle cx="40" cy="486" r="5" fill="white" opacity=".25"/><circle cx="102" cy="486" r="5" fill="white" opacity=".25"/><circle cx="164" cy="486" r="5" fill="white" opacity=".25"/><circle cx="226" cy="486" r="5" fill="white" opacity=".25"/><circle cx="288" cy="486" r="5" fill="white" opacity=".25"/><circle cx="350" cy="486" r="5" fill="white" opacity=".25"/><circle cx="412" cy="486" r="5" fill="white" opacity=".25"/><circle cx="474" cy="486" r="5" fill="white" opacity=".25"/>
</svg>