<svg xmlns="http://www.w3.org/2000/svg" width="512" height="512" viewBox="0 0 512 512">
  <defs>
    <radialGradient id="bgGrad" cx="50%" cy="40%" r="70%">
      <stop offset="0%" stop-color="white" stop-opacity=".6"/>
      <stop offset="100%" stop-color="#e5f0d8" stop-opacity="1"/>
    </radialGradient>
    <radialGradient id="faceGrad" cx="40%" cy="35%" r="65%">
      <stop offset="0%" stop-color="white" stop-opacity=".35"/>
      <stop offset="100%" stop-color="#f0c9a0" stop-opacity="1"/>
    </radialGradient>
    <filter id="shadow" x="-10%" y="-10%" width="120%" height="120%">
      <feDropShadow dx="0" dy="4" stdDeviation="8" flood-color="#558b2f" flood-opacity=".18"/>
    </filter>
  </defs>

  <!-- Background -->
  <rect width="512" height="512" fill="url(#bgGrad)"/>

  <!-- Subtle dot pattern -->
  <circle cx="0" cy="0" r="1.5" fill="#558b2f" opacity=".07"/><circle cx="48" cy="0" r="1.5" fill="#558b2f" opacity=".07"/><circle cx="96" cy="0" r="1.5" fill="#558b2f" opacity=".07"/><circle cx="144" cy="0" r="1.5" fill="#558b2f" opacity=".07"/><circle cx="192" cy="0" r="1.5" fill="#558b2f" opacity=".07"/><circle cx="240" cy="0" r="1.5" fill="#558b2f" opacity=".07"/><circle cx="288" cy="0" r="1.5" fill="#558b2f" opacity=".07"/><circle cx="336" cy="0" r="1.5" fill="#558b2f" opacity=".07"/><circle cx="384" cy="0" r="1.5" fill="#558b2f" opacity=".07"/><circle cx="432" cy="0" r="1.5" fill="#558b2f" opacity=".07"/><circle cx="480" cy="0" r="1.5" fill="#558b2f" opacity=".07"/><circle cx="528" cy="0" r="1.5" fill="#558b2f" opacity=".07"/><circle cx="0" cy="48" r="1.5" fill="#558b2f" opacity=".07"/><circle cx="48" cy="48" r="1.5" fill="#558b2f" opacity=".07"/><circle cx="96" cy="48" r="1.5" fill="#558b2f" opacity=".07"/><circle cx="144" cy="48" r="1.5" fill="#558b2f" opacity=".07"/><circle cx="192" cy="48" r="1.5" fill="#558b2f" opacity=".07"/><circle cx="240" cy="48" r="1.5" fill="#558b2f" opacity=".07"/><circle cx="288" cy="48" r="1.5" fill="#558b2f" opacity=".07"/><circle cx="336" cy="48" r="1.5" fill="#558b2f" opacity=".07"/><circle cx="384" cy="48" r="1.5" fill="#558b2f" opacity=".07"/><circle cx="432" cy="48" r="1.5" fill="#558b2f" opacity=".07"/><circle cx="480" cy="48" r="1.5" fill="#558b2f" opacity=".07"/><circle cx="528" cy="48" r="1.5" fill="#558b2f" opacity=".07"/><circle cx="0" cy="96" r="1.5" fill="#558b2f" opacity=".07"/><circle cx="48" cy="96" r="1.5" fill="#558b2f" opacity=".07"/><circle cx="96" cy="96" r="1.5" fill="#558b2f" opacity=".07"/><circle cx="144" cy="96" r="1.5" fill="#558b2f" opacity=".07"/><circle cx="192" cy="96" r="1.5" fill="#558b2f" opacity=".07"/><circle cx="240" cy="96" r="1.5" fill="#558b2f" opacity=".07"/><circle cx="288" cy="96" r="1.5" fill="#558b2f" opacity=".07"/><circle cx="336" cy="96" r="1.5" fill="#558b2f" opacity=".07"/><circle cx="384" cy="96" r="1.5" fill="#558b2f" opacity=".07"/><circle cx="432" cy="96" r="1.5" fill="#558b2f" opacity=".07"/><circle cx="480" cy="96" r="1.5" fill="#558b2f" opacity=".07"/><circle cx="528" cy="96" r="1.5" fill="#558b2f" opacity=".07"/><circle cx="0" cy="144" r="1.5" fill="#558b2f" opacity=".07"/><circle cx="48" cy="144" r="1.5" fill="#558b2f" opacity=".07"/><circle cx="96" cy="144" r="1.5" fill="#558b2f" opacity=".07"/><circle cx="144" cy="144" r="1.5" fill="#558b2f" opacity=".07"/><circle cx="192" cy="144" r="1.5" fill="#558b2f" opacity=".07"/><circle cx="240" cy="144" r="1.5" fill="#558b2f" opacity=".07"/><circle cx="288" cy="144" r="1.5" fill="#558b2f" opacity=".07"/><circle cx="336" cy="144" r="1.5" fill="#558b2f" opacity=".07"/><circle cx="384" cy="144" r="1.5" fill="#558b2f" opacity=".07"/><circle cx="432" cy="144" r="1.5" fill="#558b2f" opacity=".07"/><circle cx="480" cy="144" r="1.5" fill="#558b2f" opacity=".07"/><circle cx="528" cy="144" r="1.5" fill="#558b2f" opacity=".07"/><circle cx="0" cy="192" r="1.5" fill="#558b2f" opacity=".07"/><circle cx="48" cy="192" r="1.5" fill="#558b2f" opacity=".07"/><circle cx="96" cy="192" r="1.5" fill="#558b2f" opacity=".07"/><circle cx="144" cy="192" r="1.5" fill="#558b2f" opacity=".07"/><circle cx="192" cy="192" r="1.5" fill="#558b2f" opacity=".07"/><circle cx="240" cy="192" r="1.5" fill="#558b2f" opacity=".07"/><circle cx="288" cy="192" r="1.5" fill="#558b2f" opacity=".07"/><circle cx="336" cy="192" r="1.5" fill="#558b2f" opacity=".07"/><circle cx="384" cy="192" r="1.5" fill="#558b2f" opacity=".07"/><circle cx="432" cy="192" r="1.5" fill="#558b2f" opacity=".07"/><circle cx="480" cy="192" r="1.5" fill="#558b2f" opacity=".07"/><circle cx="528" cy="192" r="1.5" fill="#558b2f" opacity=".07"/><circle cx="0" cy="240" r="1.5" fill="#558b2f" opacity=".07"/><circle cx="48" cy="240" r="1.5" fill="#558b2f" opacity=".07"/><circle cx="96" cy="240" r="1.5" fill="#558b2f" opacity=".07"/><circle cx="144" cy="240" r="1.5" fill="#558b2f" opacity=".07"/><circle cx="192" cy="240" r="1.5" fill="#558b2f" opacity=".07"/><circle cx="240" cy="240" r="1.5" fill="#558b2f" opacity=".07"/><circle cx="288" cy="240" r="1.5" fill="#558b2f" opacity=".07"/><circle cx="336" cy="240" r="1.5" fill="#558b2f" opacity=".07"/><circle cx="384" cy="240" r="1.5" fill="#558b2f" opacity=".07"/><circle cx="432" cy="240" r="1.5" fill="#558b2f" opacity=".07"/><circle cx="480" cy="240" r="1.5" fill="#558b2f" opacity=".07"/><circle cx="528" cy="240" r="1.5" fill="#558b2f" opacity=".07"/><circle cx="0" cy="288" r="1.5" fill="#558b2f" opacity=".07"/><circle cx="48" cy="288" r="1.5" fill="#558b2f" opacity=".07"/><circle cx="96" cy="288" r="1.5" fill="#558b2f" opacity=".07"/><circle cx="144" cy="288" r="1.5" fill="#558b2f" opacity=".07"/><circle cx="192" cy="288" r="1.5" fill="#558b2f" opacity=".07"/><circle cx="240" cy="288" r="1.5" fill="#558b2f" opacity=".07"/><circle cx="288" cy="288" r="1.5" fill="#558b2f" opacity=".07"/><circle cx="336" cy="288" r="1.5" fill="#558b2f" opacity=".07"/><circle cx="384" cy="288" r="1.5" fill="#558b2f" opacity=".07"/><circle cx="432" cy="288" r="1.5" fill="#558b2f" opacity=".07"/><circle cx="480" cy="288" r="1.5" fill="#558b2f" opacity=".07"/><circle cx="528" cy="288" r="1.5" fill="#558b2f" opacity=".07"/><circle cx="0" cy="336" r="1.5" fill="#558b2f" opacity=".07"/><circle cx="48" cy="336" r="1.5" fill="#558b2f" opacity=".07"/><circle cx="96" cy="336" r="1.5" fill="#558b2f" opacity=".07"/><circle cx="144" cy="336" r="1.5" fill="#558b2f" opacity=".07"/><circle cx="192" cy="336" r="1.5" fill="#558b2f" opacity=".07"/><circle cx="240" cy="336" r="1.5" fill="#558b2f" opacity=".07"/><circle cx="288" cy="336" r="1.5" fill="#558b2f" opacity=".07"/><circle cx="336" cy="336" r="1.5" fill="#558b2f" opacity=".07"/><circle cx="384" cy="336" r="1.5" fill="#558b2f" opacity=".07"/><circle cx="432" cy="336" r="1.5" fill="#558b2f" opacity=".07"/><circle cx="480" cy="336" r="1.5" fill="#558b2f" opacity=".07"/><circle cx="528" cy="336" r="1.5" fill="#558b2f" opacity=".07"/><circle cx="0" cy="384" r="1.5" fill="#558b2f" opacity=".07"/><circle cx="48" cy="384" r="1.5" fill="#558b2f" opacity=".07"/><circle cx="96" cy="384" r="1.5" fill="#558b2f" opacity=".07"/><circle cx="144" cy="384" r="1.5" fill="#558b2f" opacity=".07"/><circle cx="192" cy="384" r="1.5" fill="#558b2f" opacity=".07"/><circle cx="240" cy="384" r="1.5" fill="#558b2f" opacity=".07"/><circle cx="288" cy="384" r="1.5" fill="#558b2f" opacity=".07"/><circle cx="336" cy="384" r="1.5" fill="#558b2f" opacity=".07"/><circle cx="384" cy="384" r="1.5" fill="#558b2f" opacity=".07"/><circle cx="432" cy="384" r="1.5" fill="#558b2f" opacity=".07"/><circle cx="480" cy="384" r="1.5" fill="#558b2f" opacity=".07"/><circle cx="528" cy="384" r="1.5" fill="#558b2f" opacity=".07"/><circle cx="0" cy="432" r="1.5" fill="#558b2f" opacity=".07"/><circle cx="48" cy="432" r="1.5" fill="#558b2f" opacity=".07"/><circle cx="96" cy="432" r="1.5" fill="#558b2f" opacity=".07"/><circle cx="144" cy="432" r="1.5" fill="#558b2f" opacity=".07"/><circle cx="192" cy="432" r="1.5" fill="#558b2f" opacity=".07"/><circle cx="240" cy="432" r="1.5" fill="#558b2f" opacity=".07"/><circle cx="288" cy="432" r="1.5" fill="#558b2f" opacity=".07"/><circle cx="336" cy="432" r="1.5" fill="#558b2f" opacity=".07"/><circle cx="384" cy="432" r="1.5" fill="#558b2f" opacity=".07"/><circle cx="432" cy="432" r="1.5" fill="#558b2f" opacity=".07"/><circle cx="480" cy="432" r="1.5" fill="#558b2f" opacity=".07"/><circle cx="528" cy="432" r="1.5" fill="#558b2f" opacity=".07"/><circle cx="0" cy="480" r="1.5" fill="#558b2f" opacity=".07"/><circle cx="48" cy="480" r="1.5" fill="#558b2f" opacity=".07"/><circle cx="96" cy="480" r="1.5" fill="#558b2f" opacity=".07"/><circle cx="144" cy="480" r="1.5" fill="#558b2f" opacity=".07"/><circle cx="192" cy="480" r="1.5" fill="#558b2f" opacity=".07"/><circle cx="240" cy="480" r="1.5" fill="#558b2f" opacity=".07"/><circle cx="288" cy="480" r="1.5" fill="#558b2f" opacity=".07"/><circle cx="336" cy="480" r="1.5" fill="#558b2f" opacity=".07"/><circle cx="384" cy="480" r="1.5" fill="#558b2f" opacity=".07"/><circle cx="432" cy="480" r="1.5" fill="#558b2f" opacity=".07"/><circle cx="480" cy="480" r="1.5" fill="#558b2f" opacity=".07"/><circle cx="528" cy="480" r="1.5" fill="#558b2f" opacity=".07"/><circle cx="0" cy="528" r="1.5" fill="#558b2f" opacity=".07"/><circle cx="48" cy="528" r="1.5" fill="#558b2f" opacity=".07"/><circle cx="96" cy="528" r="1.5" fill="#558b2f" opacity=".07"/><circle cx="144" cy="528" r="1.5" fill="#558b2f" opacity=".07"/><circle cx="192" cy="528" r="1.5" fill="#558b2f" opacity=".07"/><circle cx="240" cy="528" r="1.5" fill="#558b2f" opacity=".07"/><circle cx="288" cy="528" r="1.5" fill="#558b2f" opacity=".07"/><circle cx="336" cy="528" r="1.5" fill="#558b2f" opacity=".07"/><circle cx="384" cy="528" r="1.5" fill="#558b2f" opacity=".07"/><circle cx="432" cy="528" r="1.5" fill="#558b2f" opacity=".07"/><circle cx="480" cy="528" r="1.5" fill="#558b2f" opacity=".07"/><circle cx="528" cy="528" r="1.5" fill="#558b2f" opacity=".07"/>

  <!-- Decorative circles -->
  <circle cx="256" cy="260" r="155" fill="#558b2f" opacity=".06"/>
  <circle cx="256" cy="260" r="120" fill="#558b2f" opacity=".08"/>

  <!-- Body/outfit -->
  <g filter="url(#shadow)">
    
        <path d="M186,510 Q186,410 214,370 L256,390 L298,370 Q326,410 326,510" fill="rgb(136,174,109)"/>
        <rect x="226" y="375" width="60" height="130" rx="5" fill="rgb(77,125,42)" opacity=".8"/>
        <rect x="236" y="400" width="40" height="50" rx="4" fill="rgb(187,209,172)"/>
        <line x1="226" y1="375" x2="226" y2="345" stroke="rgb(77,125,42)" stroke-width="3"/>
        <line x1="286" y1="375" x2="286" y2="345" stroke="rgb(77,125,42)" stroke-width="3"/>
        <path d="M226,345 Q256,330 286,345" fill="none" stroke="rgb(77,125,42)" stroke-width="3"/>
      
  </g>

  <!-- Hair (behind head) -->
  <g>
    
        <ellipse cx="256" cy="178" rx="50" ry="54" fill="rgb(59,97,33)"/>
        <ellipse cx="251" cy="138" rx="36" ry="14" fill="rgb(72,118,40)"/>
        <path d="M208,175 Q201,210 211,235" fill="rgb(59,97,33)"/>
        <path d="M304,175 Q311,210 301,235" fill="rgb(59,97,33)"/>
      
  </g>

  <!-- Head / face -->
  <ellipse cx="256" cy="210" rx="68" ry="72" fill="url(#faceGrad)" filter="url(#shadow)"/>

  <!-- Cheeks -->
  <ellipse cx="214" cy="232" rx="14" ry="8" fill="#f08888" opacity=".3"/>
  <ellipse cx="298" cy="232" rx="14" ry="8" fill="#f08888" opacity=".3"/>

  <!-- Eyes -->
  
        <path d="M225,198 Q236,184 247,198" stroke="#2a2a2a" stroke-width="3" fill="#2a2a2a" opacity=".9"/>
        <path d="M265,198 Q276,184 287,198" stroke="#2a2a2a" stroke-width="3" fill="#2a2a2a" opacity=".9"/>
        <ellipse cx="233" cy="196" rx="3" ry="2" fill="white" opacity=".8"/>
        <ellipse cx="273" cy="196" rx="3" ry="2" fill="white" opacity=".8"/>
      

  <!-- Nose -->
  <path d="M251,220 Q258,232 264,226" stroke="#c89070" stroke-width="1.5" fill="none" stroke-linecap="round"/>

  <!-- Mouth -->
  <path d="M234,242 Q256,264 278,242" stroke="#2a2a2a" stroke-width="3" fill="#f08888" stroke-linecap="round"/>

  <!-- Accessory on face/head -->
  
  
  
  
  

  <!-- Camera as neck accessory for kiyosumi -->
  

  <!-- Prop held in front -->
  <g transform="translate(196, -10)">
        <rect x="72" y="280" width="16" height="20" rx="3" fill="rgb(136,174,109)"/>
        <ellipse cx="80" cy="282" rx="18" ry="10" fill="rgb(136,174,109)" opacity=".5"/>
        <path d="M80,280 Q60,255 70,235" stroke="#558b2f" stroke-width="3" fill="none" stroke-linecap="round"/>
        <ellipse cx="66" cy="238" rx="14" ry="10" fill="#558b2f" transform="rotate(-30,66,238)"/>
        <path d="M80,280 Q102,260 95,240" stroke="#558b2f" stroke-width="3" fill="none" stroke-linecap="round"/>
        <ellipse cx="98" cy="242" rx="12" ry="9" fill="rgb(136,174,109)" transform="rotate(20,98,242)"/>
        <path d="M80,280 Q85,255 80,238" stroke="#558b2f" stroke-width="2.5" fill="none"/>
        <ellipse cx="80" cy="236" rx="10" ry="8" fill="rgb(119,162,89)"/>
      </g>
  

  <!-- Bottom color bar -->
  <rect x="0" y="460" width="512" height="52" fill="#558b2f"/>
  <rect x="0" y="457" width="512" height="3" fill="rgb(68,111,38)"/>
  <circle cx="40" cy="486" r="5" fill="white" opacity=".25"/><circle cx="102" cy="486" r="5" fill="white" opacity=".25"/><circle cx="164" cy="486" r="5" fill="white" opacity=".25"/><circle cx="226" cy="486" r="5" fill="white" opacity=".25"/><circle cx="288" cy="486" r="5" fill="white" opacity=".25"/><circle cx="350" cy="486" r="5" fill="white" opacity=".25"/><circle cx="412" cy="486" r="5" fill="white" opacity=".25"/><circle cx="474" cy="486" r="5" fill="white" opacity=".25"/>
</svg>