<svg xmlns="http://www.w3.org/2000/svg" width="512" height="512" viewBox="0 0 512 512">
  <defs>
    <radialGradient id="bgGrad" cx="50%" cy="40%" r="70%">
      <stop offset="0%" stop-color="white" stop-opacity=".6"/>
      <stop offset="100%" stop-color="#fde8d8" stop-opacity="1"/>
    </radialGradient>
    <radialGradient id="faceGrad" cx="40%" cy="35%" r="65%">
      <stop offset="0%" stop-color="white" stop-opacity=".35"/>
      <stop offset="100%" stop-color="#f0c9a0" stop-opacity="1"/>
    </radialGradient>
    <filter id="shadow" x="-10%" y="-10%" width="120%" height="120%">
      <feDropShadow dx="0" dy="4" stdDeviation="8" flood-color="#e05500" flood-opacity=".18"/>
    </filter>
  </defs>

  <!-- Background -->
  <rect width="512" height="512" fill="url(#bgGrad)"/>

  <!-- Subtle dot pattern -->
  <circle cx="0" cy="0" r="1.5" fill="#e05500" opacity=".07"/><circle cx="48" cy="0" r="1.5" fill="#e05500" opacity=".07"/><circle cx="96" cy="0" r="1.5" fill="#e05500" opacity=".07"/><circle cx="144" cy="0" r="1.5" fill="#e05500" opacity=".07"/><circle cx="192" cy="0" r="1.5" fill="#e05500" opacity=".07"/><circle cx="240" cy="0" r="1.5" fill="#e05500" opacity=".07"/><circle cx="288" cy="0" r="1.5" fill="#e05500" opacity=".07"/><circle cx="336" cy="0" r="1.5" fill="#e05500" opacity=".07"/><circle cx="384" cy="0" r="1.5" fill="#e05500" opacity=".07"/><circle cx="432" cy="0" r="1.5" fill="#e05500" opacity=".07"/><circle cx="480" cy="0" r="1.5" fill="#e05500" opacity=".07"/><circle cx="528" cy="0" r="1.5" fill="#e05500" opacity=".07"/><circle cx="0" cy="48" r="1.5" fill="#e05500" opacity=".07"/><circle cx="48" cy="48" r="1.5" fill="#e05500" opacity=".07"/><circle cx="96" cy="48" r="1.5" fill="#e05500" opacity=".07"/><circle cx="144" cy="48" r="1.5" fill="#e05500" opacity=".07"/><circle cx="192" cy="48" r="1.5" fill="#e05500" opacity=".07"/><circle cx="240" cy="48" r="1.5" fill="#e05500" opacity=".07"/><circle cx="288" cy="48" r="1.5" fill="#e05500" opacity=".07"/><circle cx="336" cy="48" r="1.5" fill="#e05500" opacity=".07"/><circle cx="384" cy="48" r="1.5" fill="#e05500" opacity=".07"/><circle cx="432" cy="48" r="1.5" fill="#e05500" opacity=".07"/><circle cx="480" cy="48" r="1.5" fill="#e05500" opacity=".07"/><circle cx="528" cy="48" r="1.5" fill="#e05500" opacity=".07"/><circle cx="0" cy="96" r="1.5" fill="#e05500" opacity=".07"/><circle cx="48" cy="96" r="1.5" fill="#e05500" opacity=".07"/><circle cx="96" cy="96" r="1.5" fill="#e05500" opacity=".07"/><circle cx="144" cy="96" r="1.5" fill="#e05500" opacity=".07"/><circle cx="192" cy="96" r="1.5" fill="#e05500" opacity=".07"/><circle cx="240" cy="96" r="1.5" fill="#e05500" opacity=".07"/><circle cx="288" cy="96" r="1.5" fill="#e05500" opacity=".07"/><circle cx="336" cy="96" r="1.5" fill="#e05500" opacity=".07"/><circle cx="384" cy="96" r="1.5" fill="#e05500" opacity=".07"/><circle cx="432" cy="96" r="1.5" fill="#e05500" opacity=".07"/><circle cx="480" cy="96" r="1.5" fill="#e05500" opacity=".07"/><circle cx="528" cy="96" r="1.5" fill="#e05500" opacity=".07"/><circle cx="0" cy="144" r="1.5" fill="#e05500" opacity=".07"/><circle cx="48" cy="144" r="1.5" fill="#e05500" opacity=".07"/><circle cx="96" cy="144" r="1.5" fill="#e05500" opacity=".07"/><circle cx="144" cy="144" r="1.5" fill="#e05500" opacity=".07"/><circle cx="192" cy="144" r="1.5" fill="#e05500" opacity=".07"/><circle cx="240" cy="144" r="1.5" fill="#e05500" opacity=".07"/><circle cx="288" cy="144" r="1.5" fill="#e05500" opacity=".07"/><circle cx="336" cy="144" r="1.5" fill="#e05500" opacity=".07"/><circle cx="384" cy="144" r="1.5" fill="#e05500" opacity=".07"/><circle cx="432" cy="144" r="1.5" fill="#e05500" opacity=".07"/><circle cx="480" cy="144" r="1.5" fill="#e05500" opacity=".07"/><circle cx="528" cy="144" r="1.5" fill="#e05500" opacity=".07"/><circle cx="0" cy="192" r="1.5" fill="#e05500" opacity=".07"/><circle cx="48" cy="192" r="1.5" fill="#e05500" opacity=".07"/><circle cx="96" cy="192" r="1.5" fill="#e05500" opacity=".07"/><circle cx="144" cy="192" r="1.5" fill="#e05500" opacity=".07"/><circle cx="192" cy="192" r="1.5" fill="#e05500" opacity=".07"/><circle cx="240" cy="192" r="1.5" fill="#e05500" opacity=".07"/><circle cx="288" cy="192" r="1.5" fill="#e05500" opacity=".07"/><circle cx="336" cy="192" r="1.5" fill="#e05500" opacity=".07"/><circle cx="384" cy="192" r="1.5" fill="#e05500" opacity=".07"/><circle cx="432" cy="192" r="1.5" fill="#e05500" opacity=".07"/><circle cx="480" cy="192" r="1.5" fill="#e05500" opacity=".07"/><circle cx="528" cy="192" r="1.5" fill="#e05500" opacity=".07"/><circle cx="0" cy="240" r="1.5" fill="#e05500" opacity=".07"/><circle cx="48" cy="240" r="1.5" fill="#e05500" opacity=".07"/><circle cx="96" cy="240" r="1.5" fill="#e05500" opacity=".07"/><circle cx="144" cy="240" r="1.5" fill="#e05500" opacity=".07"/><circle cx="192" cy="240" r="1.5" fill="#e05500" opacity=".07"/><circle cx="240" cy="240" r="1.5" fill="#e05500" opacity=".07"/><circle cx="288" cy="240" r="1.5" fill="#e05500" opacity=".07"/><circle cx="336" cy="240" r="1.5" fill="#e05500" opacity=".07"/><circle cx="384" cy="240" r="1.5" fill="#e05500" opacity=".07"/><circle cx="432" cy="240" r="1.5" fill="#e05500" opacity=".07"/><circle cx="480" cy="240" r="1.5" fill="#e05500" opacity=".07"/><circle cx="528" cy="240" r="1.5" fill="#e05500" opacity=".07"/><circle cx="0" cy="288" r="1.5" fill="#e05500" opacity=".07"/><circle cx="48" cy="288" r="1.5" fill="#e05500" opacity=".07"/><circle cx="96" cy="288" r="1.5" fill="#e05500" opacity=".07"/><circle cx="144" cy="288" r="1.5" fill="#e05500" opacity=".07"/><circle cx="192" cy="288" r="1.5" fill="#e05500" opacity=".07"/><circle cx="240" cy="288" r="1.5" fill="#e05500" opacity=".07"/><circle cx="288" cy="288" r="1.5" fill="#e05500" opacity=".07"/><circle cx="336" cy="288" r="1.5" fill="#e05500" opacity=".07"/><circle cx="384" cy="288" r="1.5" fill="#e05500" opacity=".07"/><circle cx="432" cy="288" r="1.5" fill="#e05500" opacity=".07"/><circle cx="480" cy="288" r="1.5" fill="#e05500" opacity=".07"/><circle cx="528" cy="288" r="1.5" fill="#e05500" opacity=".07"/><circle cx="0" cy="336" r="1.5" fill="#e05500" opacity=".07"/><circle cx="48" cy="336" r="1.5" fill="#e05500" opacity=".07"/><circle cx="96" cy="336" r="1.5" fill="#e05500" opacity=".07"/><circle cx="144" cy="336" r="1.5" fill="#e05500" opacity=".07"/><circle cx="192" cy="336" r="1.5" fill="#e05500" opacity=".07"/><circle cx="240" cy="336" r="1.5" fill="#e05500" opacity=".07"/><circle cx="288" cy="336" r="1.5" fill="#e05500" opacity=".07"/><circle cx="336" cy="336" r="1.5" fill="#e05500" opacity=".07"/><circle cx="384" cy="336" r="1.5" fill="#e05500" opacity=".07"/><circle cx="432" cy="336" r="1.5" fill="#e05500" opacity=".07"/><circle cx="480" cy="336" r="1.5" fill="#e05500" opacity=".07"/><circle cx="528" cy="336" r="1.5" fill="#e05500" opacity=".07"/><circle cx="0" cy="384" r="1.5" fill="#e05500" opacity=".07"/><circle cx="48" cy="384" r="1.5" fill="#e05500" opacity=".07"/><circle cx="96" cy="384" r="1.5" fill="#e05500" opacity=".07"/><circle cx="144" cy="384" r="1.5" fill="#e05500" opacity=".07"/><circle cx="192" cy="384" r="1.5" fill="#e05500" opacity=".07"/><circle cx="240" cy="384" r="1.5" fill="#e05500" opacity=".07"/><circle cx="288" cy="384" r="1.5" fill="#e05500" opacity=".07"/><circle cx="336" cy="384" r="1.5" fill="#e05500" opacity=".07"/><circle cx="384" cy="384" r="1.5" fill="#e05500" opacity=".07"/><circle cx="432" cy="384" r="1.5" fill="#e05500" opacity=".07"/><circle cx="480" cy="384" r="1.5" fill="#e05500" opacity=".07"/><circle cx="528" cy="384" r="1.5" fill="#e05500" opacity=".07"/><circle cx="0" cy="432" r="1.5" fill="#e05500" opacity=".07"/><circle cx="48" cy="432" r="1.5" fill="#e05500" opacity=".07"/><circle cx="96" cy="432" r="1.5" fill="#e05500" opacity=".07"/><circle cx="144" cy="432" r="1.5" fill="#e05500" opacity=".07"/><circle cx="192" cy="432" r="1.5" fill="#e05500" opacity=".07"/><circle cx="240" cy="432" r="1.5" fill="#e05500" opacity=".07"/><circle cx="288" cy="432" r="1.5" fill="#e05500" opacity=".07"/><circle cx="336" cy="432" r="1.5" fill="#e05500" opacity=".07"/><circle cx="384" cy="432" r="1.5" fill="#e05500" opacity=".07"/><circle cx="432" cy="432" r="1.5" fill="#e05500" opacity=".07"/><circle cx="480" cy="432" r="1.5" fill="#e05500" opacity=".07"/><circle cx="528" cy="432" r="1.5" fill="#e05500" opacity=".07"/><circle cx="0" cy="480" r="1.5" fill="#e05500" opacity=".07"/><circle cx="48" cy="480" r="1.5" fill="#e05500" opacity=".07"/><circle cx="96" cy="480" r="1.5" fill="#e05500" opacity=".07"/><circle cx="144" cy="480" r="1.5" fill="#e05500" opacity=".07"/><circle cx="192" cy="480" r="1.5" fill="#e05500" opacity=".07"/><circle cx="240" cy="480" r="1.5" fill="#e05500" opacity=".07"/><circle cx="288" cy="480" r="1.5" fill="#e05500" opacity=".07"/><circle cx="336" cy="480" r="1.5" fill="#e05500" opacity=".07"/><circle cx="384" cy="480" r="1.5" fill="#e05500" opacity=".07"/><circle cx="432" cy="480" r="1.5" fill="#e05500" opacity=".07"/><circle cx="480" cy="480" r="1.5" fill="#e05500" opacity=".07"/><circle cx="528" cy="480" r="1.5" fill="#e05500" opacity=".07"/><circle cx="0" cy="528" r="1.5" fill="#e05500" opacity=".07"/><circle cx="48" cy="528" r="1.5" fill="#e05500" opacity=".07"/><circle cx="96" cy="528" r="1.5" fill="#e05500" opacity=".07"/><circle cx="144" cy="528" r="1.5" fill="#e05500" opacity=".07"/><circle cx="192" cy="528" r="1.5" fill="#e05500" opacity=".07"/><circle cx="240" cy="528" r="1.5" fill="#e05500" opacity=".07"/><circle cx="288" cy="528" r="1.5" fill="#e05500" opacity=".07"/><circle cx="336" cy="528" r="1.5" fill="#e05500" opacity=".07"/><circle cx="384" cy="528" r="1.5" fill="#e05500" opacity=".07"/><circle cx="432" cy="528" r="1.5" fill="#e05500" opacity=".07"/><circle cx="480" cy="528" r="1.5" fill="#e05500" opacity=".07"/><circle cx="528" cy="528" r="1.5" fill="#e05500" opacity=".07"/>

  <!-- Decorative circles -->
  <circle cx="256" cy="260" r="155" fill="#e05500" opacity=".06"/>
  <circle cx="256" cy="260" r="120" fill="#e05500" opacity=".08"/>

  <!-- Body/outfit -->
  <g filter="url(#shadow)">
    
        <path d="M186,510 Q186,410 214,370 L256,390 L298,370 Q326,410 326,510" fill="rgb(243,187,153)"/>
        <path d="M214,370 Q201,350 186,390 L186,510" fill="rgb(233,136,77)"/>
        <path d="M298,370 Q311,350 326,390 L326,510" fill="rgb(233,136,77)"/>
      
  </g>

  <!-- Hair (behind head) -->
  <g>
    
        <ellipse cx="256" cy="178" rx="50" ry="54" fill="rgb(157,59,0)"/>
        <ellipse cx="251" cy="138" rx="36" ry="14" fill="rgb(190,72,0)"/>
        <path d="M208,175 Q201,210 211,235" fill="rgb(157,59,0)"/>
        <path d="M304,175 Q311,210 301,235" fill="rgb(157,59,0)"/>
      
  </g>

  <!-- Head / face -->
  <ellipse cx="256" cy="210" rx="68" ry="72" fill="url(#faceGrad)" filter="url(#shadow)"/>

  <!-- Cheeks -->
  <ellipse cx="214" cy="232" rx="14" ry="8" fill="#f08888" opacity=".3"/>
  <ellipse cx="298" cy="232" rx="14" ry="8" fill="#f08888" opacity=".3"/>

  <!-- Eyes -->
  
        <path d="M225,198 Q236,184 247,198" stroke="#2a2a2a" stroke-width="3" fill="#2a2a2a" opacity=".9"/>
        <path d="M265,198 Q276,184 287,198" stroke="#2a2a2a" stroke-width="3" fill="#2a2a2a" opacity=".9"/>
        <ellipse cx="233" cy="196" rx="3" ry="2" fill="white" opacity=".8"/>
        <ellipse cx="273" cy="196" rx="3" ry="2" fill="white" opacity=".8"/>
      

  <!-- Nose -->
  <path d="M251,220 Q258,232 264,226" stroke="#c89070" stroke-width="1.5" fill="none" stroke-linecap="round"/>

  <!-- Mouth -->
  <path d="M234,242 Q256,264 278,242" stroke="#2a2a2a" stroke-width="3" fill="#f08888" stroke-linecap="round"/>

  <!-- Accessory on face/head -->
  
  
  
  
  

  <!-- Camera as neck accessory for kiyosumi -->
  

  <!-- Prop held in front -->
  <g transform="translate(196, -10)">
        <rect x="66" y="232" width="28" height="50" rx="12" fill="#f0c040"/>
        <rect x="70" y="226" width="20" height="12" rx="4" fill="#e8b830"/>
        <rect x="66" y="232" width="28" height="12" rx="8" fill="white" opacity=".8"/>
        <path d="M94,242 Q108,242 108,256 Q108,270 94,270" fill="none" stroke="#e8b830" stroke-width="4"/>
      </g>
  

  <!-- Bottom color bar -->
  <rect x="0" y="460" width="512" height="52" fill="#e05500"/>
  <rect x="0" y="457" width="512" height="3" fill="rgb(179,68,0)"/>
  <circle cx="40" cy="486" r="5" fill="white" opacity=".25"/><circle cx="102" cy="486" r="5" fill="white" opacity=".25"/><circle cx="164" cy="486" r="5" fill="white" opacity=".25"/><circle cx="226" cy="486" r="5" fill="white" opacity=".25"/><circle cx="288" cy="486" r="5" fill="white" opacity=".25"/><circle cx="350" cy="486" r="5" fill="white" opacity=".25"/><circle cx="412" cy="486" r="5" fill="white" opacity=".25"/><circle cx="474" cy="486" r="5" fill="white" opacity=".25"/>
</svg>