<svg xmlns="http://www.w3.org/2000/svg" width="512" height="512" viewBox="0 0 512 512">
  <defs>
    <radialGradient id="bgGrad" cx="50%" cy="40%" r="70%">
      <stop offset="0%" stop-color="white" stop-opacity=".6"/>
      <stop offset="100%" stop-color="#ede0f5" stop-opacity="1"/>
    </radialGradient>
    <radialGradient id="faceGrad" cx="40%" cy="35%" r="65%">
      <stop offset="0%" stop-color="white" stop-opacity=".35"/>
      <stop offset="100%" stop-color="#f5d5b8" stop-opacity="1"/>
    </radialGradient>
    <filter id="shadow" x="-10%" y="-10%" width="120%" height="120%">
      <feDropShadow dx="0" dy="4" stdDeviation="8" flood-color="#7b3fa0" flood-opacity=".18"/>
    </filter>
  </defs>

  <!-- Background -->
  <rect width="512" height="512" fill="url(#bgGrad)"/>

  <!-- Subtle dot pattern -->
  <circle cx="0" cy="0" r="1.5" fill="#7b3fa0" opacity=".07"/><circle cx="48" cy="0" r="1.5" fill="#7b3fa0" opacity=".07"/><circle cx="96" cy="0" r="1.5" fill="#7b3fa0" opacity=".07"/><circle cx="144" cy="0" r="1.5" fill="#7b3fa0" opacity=".07"/><circle cx="192" cy="0" r="1.5" fill="#7b3fa0" opacity=".07"/><circle cx="240" cy="0" r="1.5" fill="#7b3fa0" opacity=".07"/><circle cx="288" cy="0" r="1.5" fill="#7b3fa0" opacity=".07"/><circle cx="336" cy="0" r="1.5" fill="#7b3fa0" opacity=".07"/><circle cx="384" cy="0" r="1.5" fill="#7b3fa0" opacity=".07"/><circle cx="432" cy="0" r="1.5" fill="#7b3fa0" opacity=".07"/><circle cx="480" cy="0" r="1.5" fill="#7b3fa0" opacity=".07"/><circle cx="528" cy="0" r="1.5" fill="#7b3fa0" opacity=".07"/><circle cx="0" cy="48" r="1.5" fill="#7b3fa0" opacity=".07"/><circle cx="48" cy="48" r="1.5" fill="#7b3fa0" opacity=".07"/><circle cx="96" cy="48" r="1.5" fill="#7b3fa0" opacity=".07"/><circle cx="144" cy="48" r="1.5" fill="#7b3fa0" opacity=".07"/><circle cx="192" cy="48" r="1.5" fill="#7b3fa0" opacity=".07"/><circle cx="240" cy="48" r="1.5" fill="#7b3fa0" opacity=".07"/><circle cx="288" cy="48" r="1.5" fill="#7b3fa0" opacity=".07"/><circle cx="336" cy="48" r="1.5" fill="#7b3fa0" opacity=".07"/><circle cx="384" cy="48" r="1.5" fill="#7b3fa0" opacity=".07"/><circle cx="432" cy="48" r="1.5" fill="#7b3fa0" opacity=".07"/><circle cx="480" cy="48" r="1.5" fill="#7b3fa0" opacity=".07"/><circle cx="528" cy="48" r="1.5" fill="#7b3fa0" opacity=".07"/><circle cx="0" cy="96" r="1.5" fill="#7b3fa0" opacity=".07"/><circle cx="48" cy="96" r="1.5" fill="#7b3fa0" opacity=".07"/><circle cx="96" cy="96" r="1.5" fill="#7b3fa0" opacity=".07"/><circle cx="144" cy="96" r="1.5" fill="#7b3fa0" opacity=".07"/><circle cx="192" cy="96" r="1.5" fill="#7b3fa0" opacity=".07"/><circle cx="240" cy="96" r="1.5" fill="#7b3fa0" opacity=".07"/><circle cx="288" cy="96" r="1.5" fill="#7b3fa0" opacity=".07"/><circle cx="336" cy="96" r="1.5" fill="#7b3fa0" opacity=".07"/><circle cx="384" cy="96" r="1.5" fill="#7b3fa0" opacity=".07"/><circle cx="432" cy="96" r="1.5" fill="#7b3fa0" opacity=".07"/><circle cx="480" cy="96" r="1.5" fill="#7b3fa0" opacity=".07"/><circle cx="528" cy="96" r="1.5" fill="#7b3fa0" opacity=".07"/><circle cx="0" cy="144" r="1.5" fill="#7b3fa0" opacity=".07"/><circle cx="48" cy="144" r="1.5" fill="#7b3fa0" opacity=".07"/><circle cx="96" cy="144" r="1.5" fill="#7b3fa0" opacity=".07"/><circle cx="144" cy="144" r="1.5" fill="#7b3fa0" opacity=".07"/><circle cx="192" cy="144" r="1.5" fill="#7b3fa0" opacity=".07"/><circle cx="240" cy="144" r="1.5" fill="#7b3fa0" opacity=".07"/><circle cx="288" cy="144" r="1.5" fill="#7b3fa0" opacity=".07"/><circle cx="336" cy="144" r="1.5" fill="#7b3fa0" opacity=".07"/><circle cx="384" cy="144" r="1.5" fill="#7b3fa0" opacity=".07"/><circle cx="432" cy="144" r="1.5" fill="#7b3fa0" opacity=".07"/><circle cx="480" cy="144" r="1.5" fill="#7b3fa0" opacity=".07"/><circle cx="528" cy="144" r="1.5" fill="#7b3fa0" opacity=".07"/><circle cx="0" cy="192" r="1.5" fill="#7b3fa0" opacity=".07"/><circle cx="48" cy="192" r="1.5" fill="#7b3fa0" opacity=".07"/><circle cx="96" cy="192" r="1.5" fill="#7b3fa0" opacity=".07"/><circle cx="144" cy="192" r="1.5" fill="#7b3fa0" opacity=".07"/><circle cx="192" cy="192" r="1.5" fill="#7b3fa0" opacity=".07"/><circle cx="240" cy="192" r="1.5" fill="#7b3fa0" opacity=".07"/><circle cx="288" cy="192" r="1.5" fill="#7b3fa0" opacity=".07"/><circle cx="336" cy="192" r="1.5" fill="#7b3fa0" opacity=".07"/><circle cx="384" cy="192" r="1.5" fill="#7b3fa0" opacity=".07"/><circle cx="432" cy="192" r="1.5" fill="#7b3fa0" opacity=".07"/><circle cx="480" cy="192" r="1.5" fill="#7b3fa0" opacity=".07"/><circle cx="528" cy="192" r="1.5" fill="#7b3fa0" opacity=".07"/><circle cx="0" cy="240" r="1.5" fill="#7b3fa0" opacity=".07"/><circle cx="48" cy="240" r="1.5" fill="#7b3fa0" opacity=".07"/><circle cx="96" cy="240" r="1.5" fill="#7b3fa0" opacity=".07"/><circle cx="144" cy="240" r="1.5" fill="#7b3fa0" opacity=".07"/><circle cx="192" cy="240" r="1.5" fill="#7b3fa0" opacity=".07"/><circle cx="240" cy="240" r="1.5" fill="#7b3fa0" opacity=".07"/><circle cx="288" cy="240" r="1.5" fill="#7b3fa0" opacity=".07"/><circle cx="336" cy="240" r="1.5" fill="#7b3fa0" opacity=".07"/><circle cx="384" cy="240" r="1.5" fill="#7b3fa0" opacity=".07"/><circle cx="432" cy="240" r="1.5" fill="#7b3fa0" opacity=".07"/><circle cx="480" cy="240" r="1.5" fill="#7b3fa0" opacity=".07"/><circle cx="528" cy="240" r="1.5" fill="#7b3fa0" opacity=".07"/><circle cx="0" cy="288" r="1.5" fill="#7b3fa0" opacity=".07"/><circle cx="48" cy="288" r="1.5" fill="#7b3fa0" opacity=".07"/><circle cx="96" cy="288" r="1.5" fill="#7b3fa0" opacity=".07"/><circle cx="144" cy="288" r="1.5" fill="#7b3fa0" opacity=".07"/><circle cx="192" cy="288" r="1.5" fill="#7b3fa0" opacity=".07"/><circle cx="240" cy="288" r="1.5" fill="#7b3fa0" opacity=".07"/><circle cx="288" cy="288" r="1.5" fill="#7b3fa0" opacity=".07"/><circle cx="336" cy="288" r="1.5" fill="#7b3fa0" opacity=".07"/><circle cx="384" cy="288" r="1.5" fill="#7b3fa0" opacity=".07"/><circle cx="432" cy="288" r="1.5" fill="#7b3fa0" opacity=".07"/><circle cx="480" cy="288" r="1.5" fill="#7b3fa0" opacity=".07"/><circle cx="528" cy="288" r="1.5" fill="#7b3fa0" opacity=".07"/><circle cx="0" cy="336" r="1.5" fill="#7b3fa0" opacity=".07"/><circle cx="48" cy="336" r="1.5" fill="#7b3fa0" opacity=".07"/><circle cx="96" cy="336" r="1.5" fill="#7b3fa0" opacity=".07"/><circle cx="144" cy="336" r="1.5" fill="#7b3fa0" opacity=".07"/><circle cx="192" cy="336" r="1.5" fill="#7b3fa0" opacity=".07"/><circle cx="240" cy="336" r="1.5" fill="#7b3fa0" opacity=".07"/><circle cx="288" cy="336" r="1.5" fill="#7b3fa0" opacity=".07"/><circle cx="336" cy="336" r="1.5" fill="#7b3fa0" opacity=".07"/><circle cx="384" cy="336" r="1.5" fill="#7b3fa0" opacity=".07"/><circle cx="432" cy="336" r="1.5" fill="#7b3fa0" opacity=".07"/><circle cx="480" cy="336" r="1.5" fill="#7b3fa0" opacity=".07"/><circle cx="528" cy="336" r="1.5" fill="#7b3fa0" opacity=".07"/><circle cx="0" cy="384" r="1.5" fill="#7b3fa0" opacity=".07"/><circle cx="48" cy="384" r="1.5" fill="#7b3fa0" opacity=".07"/><circle cx="96" cy="384" r="1.5" fill="#7b3fa0" opacity=".07"/><circle cx="144" cy="384" r="1.5" fill="#7b3fa0" opacity=".07"/><circle cx="192" cy="384" r="1.5" fill="#7b3fa0" opacity=".07"/><circle cx="240" cy="384" r="1.5" fill="#7b3fa0" opacity=".07"/><circle cx="288" cy="384" r="1.5" fill="#7b3fa0" opacity=".07"/><circle cx="336" cy="384" r="1.5" fill="#7b3fa0" opacity=".07"/><circle cx="384" cy="384" r="1.5" fill="#7b3fa0" opacity=".07"/><circle cx="432" cy="384" r="1.5" fill="#7b3fa0" opacity=".07"/><circle cx="480" cy="384" r="1.5" fill="#7b3fa0" opacity=".07"/><circle cx="528" cy="384" r="1.5" fill="#7b3fa0" opacity=".07"/><circle cx="0" cy="432" r="1.5" fill="#7b3fa0" opacity=".07"/><circle cx="48" cy="432" r="1.5" fill="#7b3fa0" opacity=".07"/><circle cx="96" cy="432" r="1.5" fill="#7b3fa0" opacity=".07"/><circle cx="144" cy="432" r="1.5" fill="#7b3fa0" opacity=".07"/><circle cx="192" cy="432" r="1.5" fill="#7b3fa0" opacity=".07"/><circle cx="240" cy="432" r="1.5" fill="#7b3fa0" opacity=".07"/><circle cx="288" cy="432" r="1.5" fill="#7b3fa0" opacity=".07"/><circle cx="336" cy="432" r="1.5" fill="#7b3fa0" opacity=".07"/><circle cx="384" cy="432" r="1.5" fill="#7b3fa0" opacity=".07"/><circle cx="432" cy="432" r="1.5" fill="#7b3fa0" opacity=".07"/><circle cx="480" cy="432" r="1.5" fill="#7b3fa0" opacity=".07"/><circle cx="528" cy="432" r="1.5" fill="#7b3fa0" opacity=".07"/><circle cx="0" cy="480" r="1.5" fill="#7b3fa0" opacity=".07"/><circle cx="48" cy="480" r="1.5" fill="#7b3fa0" opacity=".07"/><circle cx="96" cy="480" r="1.5" fill="#7b3fa0" opacity=".07"/><circle cx="144" cy="480" r="1.5" fill="#7b3fa0" opacity=".07"/><circle cx="192" cy="480" r="1.5" fill="#7b3fa0" opacity=".07"/><circle cx="240" cy="480" r="1.5" fill="#7b3fa0" opacity=".07"/><circle cx="288" cy="480" r="1.5" fill="#7b3fa0" opacity=".07"/><circle cx="336" cy="480" r="1.5" fill="#7b3fa0" opacity=".07"/><circle cx="384" cy="480" r="1.5" fill="#7b3fa0" opacity=".07"/><circle cx="432" cy="480" r="1.5" fill="#7b3fa0" opacity=".07"/><circle cx="480" cy="480" r="1.5" fill="#7b3fa0" opacity=".07"/><circle cx="528" cy="480" r="1.5" fill="#7b3fa0" opacity=".07"/><circle cx="0" cy="528" r="1.5" fill="#7b3fa0" opacity=".07"/><circle cx="48" cy="528" r="1.5" fill="#7b3fa0" opacity=".07"/><circle cx="96" cy="528" r="1.5" fill="#7b3fa0" opacity=".07"/><circle cx="144" cy="528" r="1.5" fill="#7b3fa0" opacity=".07"/><circle cx="192" cy="528" r="1.5" fill="#7b3fa0" opacity=".07"/><circle cx="240" cy="528" r="1.5" fill="#7b3fa0" opacity=".07"/><circle cx="288" cy="528" r="1.5" fill="#7b3fa0" opacity=".07"/><circle cx="336" cy="528" r="1.5" fill="#7b3fa0" opacity=".07"/><circle cx="384" cy="528" r="1.5" fill="#7b3fa0" opacity=".07"/><circle cx="432" cy="528" r="1.5" fill="#7b3fa0" opacity=".07"/><circle cx="480" cy="528" r="1.5" fill="#7b3fa0" opacity=".07"/><circle cx="528" cy="528" r="1.5" fill="#7b3fa0" opacity=".07"/>

  <!-- Decorative circles -->
  <circle cx="256" cy="260" r="155" fill="#7b3fa0" opacity=".06"/>
  <circle cx="256" cy="260" r="120" fill="#7b3fa0" opacity=".08"/>

  <!-- Body/outfit -->
  <g filter="url(#shadow)">
    
        <path d="M186,510 Q186,410 214,370 L256,390 L298,370 Q326,410 326,510" fill="rgb(163,121,189)"/>
        <path d="M214,370 Q201,350 186,390 L186,510" fill="rgb(98,50,128)"/>
        <path d="M298,370 Q311,350 326,390 L326,510" fill="rgb(98,50,128)"/>
        <circle cx="241" cy="410" r="6" fill="#7b3fa0" opacity=".6"/>
        <circle cx="271" cy="425" r="5" fill="rgb(98,50,128)" opacity=".6"/>
        <circle cx="246" cy="440" r="5" fill="#7b3fa0" opacity=".5"/>
      
  </g>

  <!-- Hair (behind head) -->
  <g>
    
        <ellipse cx="256" cy="185" rx="55" ry="60" fill="rgb(86,44,112)"/>
        <path d="M202,220 Q186,270 191,330 Q176,300 186,260" fill="rgb(86,44,112)"/>
        <path d="M310,220 Q326,270 321,330 Q336,300 326,260" fill="rgb(86,44,112)"/>
        <path d="M226,130 Q246,115 266,118 Q251,125 241,135" fill="rgb(105,54,136)"/>
        <path d="M206,155 Q196,135 211,128 Q221,145 216,155" fill="rgb(105,54,136)"/>
      
  </g>

  <!-- Head / face -->
  <ellipse cx="256" cy="210" rx="68" ry="72" fill="url(#faceGrad)" filter="url(#shadow)"/>

  <!-- Cheeks -->
  <ellipse cx="214" cy="232" rx="14" ry="8" fill="#f08888" opacity=".3"/>
  <ellipse cx="298" cy="232" rx="14" ry="8" fill="#f08888" opacity=".3"/>

  <!-- Eyes -->
  
        <ellipse cx="236" cy="198" rx="12" ry="10" fill="#2a2a2a"/>
        <ellipse cx="276" cy="198" rx="12" ry="10" fill="#2a2a2a"/>
        <ellipse cx="233" cy="195" rx="4.5" ry="4" fill="white" opacity=".75"/>
        <ellipse cx="273" cy="195" rx="4.5" ry="4" fill="white" opacity=".75"/>
        <ellipse cx="238" cy="198" rx="2" ry="2" fill="white" opacity=".5"/>
        <ellipse cx="278" cy="198" rx="2" ry="2" fill="white" opacity=".5"/>
      

  <!-- Nose -->
  <path d="M251,220 Q258,232 264,226" stroke="#c89070" stroke-width="1.5" fill="none" stroke-linecap="round"/>

  <!-- Mouth -->
  <path d="M238,240 Q256,260 274,240" stroke="#2a2a2a" stroke-width="3" fill="#f08888" stroke-linecap="round"/>
              <path d="M246,246 L251,252" stroke="white" stroke-width="2" stroke-linecap="round"/>
              <path d="M258,253 L263,247" stroke="white" stroke-width="2" stroke-linecap="round"/>

  <!-- Accessory on face/head -->
  
  
        <path d="M208,180 Q206,130 256,125 Q306,130 304,180" fill="none" stroke="#333" stroke-width="6" stroke-linecap="round"/>
        <rect x="198" y="172" width="20" height="28" rx="8" fill="#333"/>
        <rect x="200" y="176" width="16" height="20" rx="6" fill="#7b3fa0"/>
        <rect x="294" y="172" width="20" height="28" rx="8" fill="#333"/>
        <rect x="296" y="176" width="16" height="20" rx="6" fill="#7b3fa0"/>
      
  
  
  

  <!-- Camera as neck accessory for kiyosumi -->
  

  <!-- Prop held in front -->
  
  

  <!-- Bottom color bar -->
  <rect x="0" y="460" width="512" height="52" fill="#7b3fa0"/>
  <rect x="0" y="457" width="512" height="3" fill="rgb(98,50,128)"/>
  <circle cx="40" cy="486" r="5" fill="white" opacity=".25"/><circle cx="102" cy="486" r="5" fill="white" opacity=".25"/><circle cx="164" cy="486" r="5" fill="white" opacity=".25"/><circle cx="226" cy="486" r="5" fill="white" opacity=".25"/><circle cx="288" cy="486" r="5" fill="white" opacity=".25"/><circle cx="350" cy="486" r="5" fill="white" opacity=".25"/><circle cx="412" cy="486" r="5" fill="white" opacity=".25"/><circle cx="474" cy="486" r="5" fill="white" opacity=".25"/>
</svg>