<svg xmlns="http://www.w3.org/2000/svg" width="512" height="512" viewBox="0 0 512 512">
  <defs>
    <radialGradient id="bgGrad" cx="50%" cy="40%" r="70%">
      <stop offset="0%" stop-color="white" stop-opacity=".6"/>
      <stop offset="100%" stop-color="#e2e8ec" stop-opacity="1"/>
    </radialGradient>
    <radialGradient id="faceGrad" cx="40%" cy="35%" r="65%">
      <stop offset="0%" stop-color="white" stop-opacity=".35"/>
      <stop offset="100%" stop-color="#f0c9a0" stop-opacity="1"/>
    </radialGradient>
    <filter id="shadow" x="-10%" y="-10%" width="120%" height="120%">
      <feDropShadow dx="0" dy="4" stdDeviation="8" flood-color="#37474f" flood-opacity=".18"/>
    </filter>
  </defs>

  <!-- Background -->
  <rect width="512" height="512" fill="url(#bgGrad)"/>

  <!-- Subtle dot pattern -->
  <circle cx="0" cy="0" r="1.5" fill="#37474f" opacity=".07"/><circle cx="48" cy="0" r="1.5" fill="#37474f" opacity=".07"/><circle cx="96" cy="0" r="1.5" fill="#37474f" opacity=".07"/><circle cx="144" cy="0" r="1.5" fill="#37474f" opacity=".07"/><circle cx="192" cy="0" r="1.5" fill="#37474f" opacity=".07"/><circle cx="240" cy="0" r="1.5" fill="#37474f" opacity=".07"/><circle cx="288" cy="0" r="1.5" fill="#37474f" opacity=".07"/><circle cx="336" cy="0" r="1.5" fill="#37474f" opacity=".07"/><circle cx="384" cy="0" r="1.5" fill="#37474f" opacity=".07"/><circle cx="432" cy="0" r="1.5" fill="#37474f" opacity=".07"/><circle cx="480" cy="0" r="1.5" fill="#37474f" opacity=".07"/><circle cx="528" cy="0" r="1.5" fill="#37474f" opacity=".07"/><circle cx="0" cy="48" r="1.5" fill="#37474f" opacity=".07"/><circle cx="48" cy="48" r="1.5" fill="#37474f" opacity=".07"/><circle cx="96" cy="48" r="1.5" fill="#37474f" opacity=".07"/><circle cx="144" cy="48" r="1.5" fill="#37474f" opacity=".07"/><circle cx="192" cy="48" r="1.5" fill="#37474f" opacity=".07"/><circle cx="240" cy="48" r="1.5" fill="#37474f" opacity=".07"/><circle cx="288" cy="48" r="1.5" fill="#37474f" opacity=".07"/><circle cx="336" cy="48" r="1.5" fill="#37474f" opacity=".07"/><circle cx="384" cy="48" r="1.5" fill="#37474f" opacity=".07"/><circle cx="432" cy="48" r="1.5" fill="#37474f" opacity=".07"/><circle cx="480" cy="48" r="1.5" fill="#37474f" opacity=".07"/><circle cx="528" cy="48" r="1.5" fill="#37474f" opacity=".07"/><circle cx="0" cy="96" r="1.5" fill="#37474f" opacity=".07"/><circle cx="48" cy="96" r="1.5" fill="#37474f" opacity=".07"/><circle cx="96" cy="96" r="1.5" fill="#37474f" opacity=".07"/><circle cx="144" cy="96" r="1.5" fill="#37474f" opacity=".07"/><circle cx="192" cy="96" r="1.5" fill="#37474f" opacity=".07"/><circle cx="240" cy="96" r="1.5" fill="#37474f" opacity=".07"/><circle cx="288" cy="96" r="1.5" fill="#37474f" opacity=".07"/><circle cx="336" cy="96" r="1.5" fill="#37474f" opacity=".07"/><circle cx="384" cy="96" r="1.5" fill="#37474f" opacity=".07"/><circle cx="432" cy="96" r="1.5" fill="#37474f" opacity=".07"/><circle cx="480" cy="96" r="1.5" fill="#37474f" opacity=".07"/><circle cx="528" cy="96" r="1.5" fill="#37474f" opacity=".07"/><circle cx="0" cy="144" r="1.5" fill="#37474f" opacity=".07"/><circle cx="48" cy="144" r="1.5" fill="#37474f" opacity=".07"/><circle cx="96" cy="144" r="1.5" fill="#37474f" opacity=".07"/><circle cx="144" cy="144" r="1.5" fill="#37474f" opacity=".07"/><circle cx="192" cy="144" r="1.5" fill="#37474f" opacity=".07"/><circle cx="240" cy="144" r="1.5" fill="#37474f" opacity=".07"/><circle cx="288" cy="144" r="1.5" fill="#37474f" opacity=".07"/><circle cx="336" cy="144" r="1.5" fill="#37474f" opacity=".07"/><circle cx="384" cy="144" r="1.5" fill="#37474f" opacity=".07"/><circle cx="432" cy="144" r="1.5" fill="#37474f" opacity=".07"/><circle cx="480" cy="144" r="1.5" fill="#37474f" opacity=".07"/><circle cx="528" cy="144" r="1.5" fill="#37474f" opacity=".07"/><circle cx="0" cy="192" r="1.5" fill="#37474f" opacity=".07"/><circle cx="48" cy="192" r="1.5" fill="#37474f" opacity=".07"/><circle cx="96" cy="192" r="1.5" fill="#37474f" opacity=".07"/><circle cx="144" cy="192" r="1.5" fill="#37474f" opacity=".07"/><circle cx="192" cy="192" r="1.5" fill="#37474f" opacity=".07"/><circle cx="240" cy="192" r="1.5" fill="#37474f" opacity=".07"/><circle cx="288" cy="192" r="1.5" fill="#37474f" opacity=".07"/><circle cx="336" cy="192" r="1.5" fill="#37474f" opacity=".07"/><circle cx="384" cy="192" r="1.5" fill="#37474f" opacity=".07"/><circle cx="432" cy="192" r="1.5" fill="#37474f" opacity=".07"/><circle cx="480" cy="192" r="1.5" fill="#37474f" opacity=".07"/><circle cx="528" cy="192" r="1.5" fill="#37474f" opacity=".07"/><circle cx="0" cy="240" r="1.5" fill="#37474f" opacity=".07"/><circle cx="48" cy="240" r="1.5" fill="#37474f" opacity=".07"/><circle cx="96" cy="240" r="1.5" fill="#37474f" opacity=".07"/><circle cx="144" cy="240" r="1.5" fill="#37474f" opacity=".07"/><circle cx="192" cy="240" r="1.5" fill="#37474f" opacity=".07"/><circle cx="240" cy="240" r="1.5" fill="#37474f" opacity=".07"/><circle cx="288" cy="240" r="1.5" fill="#37474f" opacity=".07"/><circle cx="336" cy="240" r="1.5" fill="#37474f" opacity=".07"/><circle cx="384" cy="240" r="1.5" fill="#37474f" opacity=".07"/><circle cx="432" cy="240" r="1.5" fill="#37474f" opacity=".07"/><circle cx="480" cy="240" r="1.5" fill="#37474f" opacity=".07"/><circle cx="528" cy="240" r="1.5" fill="#37474f" opacity=".07"/><circle cx="0" cy="288" r="1.5" fill="#37474f" opacity=".07"/><circle cx="48" cy="288" r="1.5" fill="#37474f" opacity=".07"/><circle cx="96" cy="288" r="1.5" fill="#37474f" opacity=".07"/><circle cx="144" cy="288" r="1.5" fill="#37474f" opacity=".07"/><circle cx="192" cy="288" r="1.5" fill="#37474f" opacity=".07"/><circle cx="240" cy="288" r="1.5" fill="#37474f" opacity=".07"/><circle cx="288" cy="288" r="1.5" fill="#37474f" opacity=".07"/><circle cx="336" cy="288" r="1.5" fill="#37474f" opacity=".07"/><circle cx="384" cy="288" r="1.5" fill="#37474f" opacity=".07"/><circle cx="432" cy="288" r="1.5" fill="#37474f" opacity=".07"/><circle cx="480" cy="288" r="1.5" fill="#37474f" opacity=".07"/><circle cx="528" cy="288" r="1.5" fill="#37474f" opacity=".07"/><circle cx="0" cy="336" r="1.5" fill="#37474f" opacity=".07"/><circle cx="48" cy="336" r="1.5" fill="#37474f" opacity=".07"/><circle cx="96" cy="336" r="1.5" fill="#37474f" opacity=".07"/><circle cx="144" cy="336" r="1.5" fill="#37474f" opacity=".07"/><circle cx="192" cy="336" r="1.5" fill="#37474f" opacity=".07"/><circle cx="240" cy="336" r="1.5" fill="#37474f" opacity=".07"/><circle cx="288" cy="336" r="1.5" fill="#37474f" opacity=".07"/><circle cx="336" cy="336" r="1.5" fill="#37474f" opacity=".07"/><circle cx="384" cy="336" r="1.5" fill="#37474f" opacity=".07"/><circle cx="432" cy="336" r="1.5" fill="#37474f" opacity=".07"/><circle cx="480" cy="336" r="1.5" fill="#37474f" opacity=".07"/><circle cx="528" cy="336" r="1.5" fill="#37474f" opacity=".07"/><circle cx="0" cy="384" r="1.5" fill="#37474f" opacity=".07"/><circle cx="48" cy="384" r="1.5" fill="#37474f" opacity=".07"/><circle cx="96" cy="384" r="1.5" fill="#37474f" opacity=".07"/><circle cx="144" cy="384" r="1.5" fill="#37474f" opacity=".07"/><circle cx="192" cy="384" r="1.5" fill="#37474f" opacity=".07"/><circle cx="240" cy="384" r="1.5" fill="#37474f" opacity=".07"/><circle cx="288" cy="384" r="1.5" fill="#37474f" opacity=".07"/><circle cx="336" cy="384" r="1.5" fill="#37474f" opacity=".07"/><circle cx="384" cy="384" r="1.5" fill="#37474f" opacity=".07"/><circle cx="432" cy="384" r="1.5" fill="#37474f" opacity=".07"/><circle cx="480" cy="384" r="1.5" fill="#37474f" opacity=".07"/><circle cx="528" cy="384" r="1.5" fill="#37474f" opacity=".07"/><circle cx="0" cy="432" r="1.5" fill="#37474f" opacity=".07"/><circle cx="48" cy="432" r="1.5" fill="#37474f" opacity=".07"/><circle cx="96" cy="432" r="1.5" fill="#37474f" opacity=".07"/><circle cx="144" cy="432" r="1.5" fill="#37474f" opacity=".07"/><circle cx="192" cy="432" r="1.5" fill="#37474f" opacity=".07"/><circle cx="240" cy="432" r="1.5" fill="#37474f" opacity=".07"/><circle cx="288" cy="432" r="1.5" fill="#37474f" opacity=".07"/><circle cx="336" cy="432" r="1.5" fill="#37474f" opacity=".07"/><circle cx="384" cy="432" r="1.5" fill="#37474f" opacity=".07"/><circle cx="432" cy="432" r="1.5" fill="#37474f" opacity=".07"/><circle cx="480" cy="432" r="1.5" fill="#37474f" opacity=".07"/><circle cx="528" cy="432" r="1.5" fill="#37474f" opacity=".07"/><circle cx="0" cy="480" r="1.5" fill="#37474f" opacity=".07"/><circle cx="48" cy="480" r="1.5" fill="#37474f" opacity=".07"/><circle cx="96" cy="480" r="1.5" fill="#37474f" opacity=".07"/><circle cx="144" cy="480" r="1.5" fill="#37474f" opacity=".07"/><circle cx="192" cy="480" r="1.5" fill="#37474f" opacity=".07"/><circle cx="240" cy="480" r="1.5" fill="#37474f" opacity=".07"/><circle cx="288" cy="480" r="1.5" fill="#37474f" opacity=".07"/><circle cx="336" cy="480" r="1.5" fill="#37474f" opacity=".07"/><circle cx="384" cy="480" r="1.5" fill="#37474f" opacity=".07"/><circle cx="432" cy="480" r="1.5" fill="#37474f" opacity=".07"/><circle cx="480" cy="480" r="1.5" fill="#37474f" opacity=".07"/><circle cx="528" cy="480" r="1.5" fill="#37474f" opacity=".07"/><circle cx="0" cy="528" r="1.5" fill="#37474f" opacity=".07"/><circle cx="48" cy="528" r="1.5" fill="#37474f" opacity=".07"/><circle cx="96" cy="528" r="1.5" fill="#37474f" opacity=".07"/><circle cx="144" cy="528" r="1.5" fill="#37474f" opacity=".07"/><circle cx="192" cy="528" r="1.5" fill="#37474f" opacity=".07"/><circle cx="240" cy="528" r="1.5" fill="#37474f" opacity=".07"/><circle cx="288" cy="528" r="1.5" fill="#37474f" opacity=".07"/><circle cx="336" cy="528" r="1.5" fill="#37474f" opacity=".07"/><circle cx="384" cy="528" r="1.5" fill="#37474f" opacity=".07"/><circle cx="432" cy="528" r="1.5" fill="#37474f" opacity=".07"/><circle cx="480" cy="528" r="1.5" fill="#37474f" opacity=".07"/><circle cx="528" cy="528" r="1.5" fill="#37474f" opacity=".07"/>

  <!-- Decorative circles -->
  <circle cx="256" cy="260" r="155" fill="#37474f" opacity=".06"/>
  <circle cx="256" cy="260" r="120" fill="#37474f" opacity=".08"/>

  <!-- Body/outfit -->
  <g filter="url(#shadow)">
    
        <path d="M186,510 Q186,410 214,370 L256,390 L298,370 Q326,410 326,510" fill="rgb(36,46,51)"/>
        <rect x="236" y="380" width="40" height="130" fill="white" opacity=".9"/>
        <path d="M214,370 L236,420 L256,390 L276,420 L298,370" fill="rgb(41,53,59)"/>
        <rect x="252" y="410" width="8" height="60" rx="2" fill="#37474f" opacity=".7"/>
      
  </g>

  <!-- Hair (behind head) -->
  <g>
    
        <ellipse cx="256" cy="170" rx="46" ry="48" fill="rgb(39,50,55)"/>
        <path d="M210,170 L214,215 Q208,230 218,240" fill="rgb(39,50,55)"/>
        <path d="M302,170 L298,215 Q304,230 294,240" fill="rgb(39,50,55)"/>
        <path d="M211,170 Q256,122 301,170" fill="rgb(39,50,55)"/>
      
  </g>

  <!-- Head / face -->
  <ellipse cx="256" cy="210" rx="68" ry="72" fill="url(#faceGrad)" filter="url(#shadow)"/>

  <!-- Cheeks -->
  <ellipse cx="214" cy="232" rx="14" ry="8" fill="#f08888" opacity=".3"/>
  <ellipse cx="298" cy="232" rx="14" ry="8" fill="#f08888" opacity=".3"/>

  <!-- Eyes -->
  
        <ellipse cx="236" cy="198" rx="11" ry="8" fill="#111"/>
        <ellipse cx="276" cy="198" rx="11" ry="8" fill="#111"/>
        <ellipse cx="234" cy="196" rx="3.5" ry="2.5" fill="white" opacity=".55"/>
        <ellipse cx="274" cy="196" rx="3.5" ry="2.5" fill="white" opacity=".55"/>
        <path d="M223,186 L249,189" stroke="#111" stroke-width="3.5" fill="none" stroke-linecap="round"/>
        <path d="M263,189 L289,186" stroke="#111" stroke-width="3.5" fill="none" stroke-linecap="round"/>
      

  <!-- Nose -->
  <path d="M251,220 Q258,232 264,226" stroke="#c89070" stroke-width="1.5" fill="none" stroke-linecap="round"/>

  <!-- Mouth -->
  <path d="M244,242 L268,242" stroke="#2a2a2a" stroke-width="2.5" stroke-linecap="round"/>

  <!-- Accessory on face/head -->
  
  
  
  
  

  <!-- Camera as neck accessory for kiyosumi -->
  

  <!-- Prop held in front -->
  <g transform="translate(196, -10)">
        <rect x="54" y="255" width="52" height="38" rx="6" fill="rgb(39,50,55)"/>
        <rect x="58" y="259" width="44" height="30" rx="4" fill="rgb(95,108,114)"/>
        <rect x="66" y="248" width="28" height="12" rx="5" fill="none" stroke="rgb(39,50,55)" stroke-width="3"/>
        <line x1="54" y1="272" x2="106" y2="272" stroke="rgb(39,50,55)" stroke-width="2"/>
        <rect x="76" y="267" width="8" height="8" rx="2" fill="rgb(39,50,55)"/>
      </g>
  

  <!-- Bottom color bar -->
  <rect x="0" y="460" width="512" height="52" fill="#37474f"/>
  <rect x="0" y="457" width="512" height="3" fill="rgb(44,57,63)"/>
  <circle cx="40" cy="486" r="5" fill="white" opacity=".25"/><circle cx="102" cy="486" r="5" fill="white" opacity=".25"/><circle cx="164" cy="486" r="5" fill="white" opacity=".25"/><circle cx="226" cy="486" r="5" fill="white" opacity=".25"/><circle cx="288" cy="486" r="5" fill="white" opacity=".25"/><circle cx="350" cy="486" r="5" fill="white" opacity=".25"/><circle cx="412" cy="486" r="5" fill="white" opacity=".25"/><circle cx="474" cy="486" r="5" fill="white" opacity=".25"/>
</svg>