<svg xmlns="http://www.w3.org/2000/svg" width="512" height="512" viewBox="0 0 512 512">
  <defs>
    <radialGradient id="bgGrad" cx="50%" cy="40%" r="70%">
      <stop offset="0%" stop-color="white" stop-opacity=".6"/>
      <stop offset="100%" stop-color="#d8eef8" stop-opacity="1"/>
    </radialGradient>
    <radialGradient id="faceGrad" cx="40%" cy="35%" r="65%">
      <stop offset="0%" stop-color="white" stop-opacity=".35"/>
      <stop offset="100%" stop-color="#f5d5b8" stop-opacity="1"/>
    </radialGradient>
    <filter id="shadow" x="-10%" y="-10%" width="120%" height="120%">
      <feDropShadow dx="0" dy="4" stdDeviation="8" flood-color="#0277bd" flood-opacity=".18"/>
    </filter>
  </defs>

  <!-- Background -->
  <rect width="512" height="512" fill="url(#bgGrad)"/>

  <!-- Subtle dot pattern -->
  <circle cx="0" cy="0" r="1.5" fill="#0277bd" opacity=".07"/><circle cx="48" cy="0" r="1.5" fill="#0277bd" opacity=".07"/><circle cx="96" cy="0" r="1.5" fill="#0277bd" opacity=".07"/><circle cx="144" cy="0" r="1.5" fill="#0277bd" opacity=".07"/><circle cx="192" cy="0" r="1.5" fill="#0277bd" opacity=".07"/><circle cx="240" cy="0" r="1.5" fill="#0277bd" opacity=".07"/><circle cx="288" cy="0" r="1.5" fill="#0277bd" opacity=".07"/><circle cx="336" cy="0" r="1.5" fill="#0277bd" opacity=".07"/><circle cx="384" cy="0" r="1.5" fill="#0277bd" opacity=".07"/><circle cx="432" cy="0" r="1.5" fill="#0277bd" opacity=".07"/><circle cx="480" cy="0" r="1.5" fill="#0277bd" opacity=".07"/><circle cx="528" cy="0" r="1.5" fill="#0277bd" opacity=".07"/><circle cx="0" cy="48" r="1.5" fill="#0277bd" opacity=".07"/><circle cx="48" cy="48" r="1.5" fill="#0277bd" opacity=".07"/><circle cx="96" cy="48" r="1.5" fill="#0277bd" opacity=".07"/><circle cx="144" cy="48" r="1.5" fill="#0277bd" opacity=".07"/><circle cx="192" cy="48" r="1.5" fill="#0277bd" opacity=".07"/><circle cx="240" cy="48" r="1.5" fill="#0277bd" opacity=".07"/><circle cx="288" cy="48" r="1.5" fill="#0277bd" opacity=".07"/><circle cx="336" cy="48" r="1.5" fill="#0277bd" opacity=".07"/><circle cx="384" cy="48" r="1.5" fill="#0277bd" opacity=".07"/><circle cx="432" cy="48" r="1.5" fill="#0277bd" opacity=".07"/><circle cx="480" cy="48" r="1.5" fill="#0277bd" opacity=".07"/><circle cx="528" cy="48" r="1.5" fill="#0277bd" opacity=".07"/><circle cx="0" cy="96" r="1.5" fill="#0277bd" opacity=".07"/><circle cx="48" cy="96" r="1.5" fill="#0277bd" opacity=".07"/><circle cx="96" cy="96" r="1.5" fill="#0277bd" opacity=".07"/><circle cx="144" cy="96" r="1.5" fill="#0277bd" opacity=".07"/><circle cx="192" cy="96" r="1.5" fill="#0277bd" opacity=".07"/><circle cx="240" cy="96" r="1.5" fill="#0277bd" opacity=".07"/><circle cx="288" cy="96" r="1.5" fill="#0277bd" opacity=".07"/><circle cx="336" cy="96" r="1.5" fill="#0277bd" opacity=".07"/><circle cx="384" cy="96" r="1.5" fill="#0277bd" opacity=".07"/><circle cx="432" cy="96" r="1.5" fill="#0277bd" opacity=".07"/><circle cx="480" cy="96" r="1.5" fill="#0277bd" opacity=".07"/><circle cx="528" cy="96" r="1.5" fill="#0277bd" opacity=".07"/><circle cx="0" cy="144" r="1.5" fill="#0277bd" opacity=".07"/><circle cx="48" cy="144" r="1.5" fill="#0277bd" opacity=".07"/><circle cx="96" cy="144" r="1.5" fill="#0277bd" opacity=".07"/><circle cx="144" cy="144" r="1.5" fill="#0277bd" opacity=".07"/><circle cx="192" cy="144" r="1.5" fill="#0277bd" opacity=".07"/><circle cx="240" cy="144" r="1.5" fill="#0277bd" opacity=".07"/><circle cx="288" cy="144" r="1.5" fill="#0277bd" opacity=".07"/><circle cx="336" cy="144" r="1.5" fill="#0277bd" opacity=".07"/><circle cx="384" cy="144" r="1.5" fill="#0277bd" opacity=".07"/><circle cx="432" cy="144" r="1.5" fill="#0277bd" opacity=".07"/><circle cx="480" cy="144" r="1.5" fill="#0277bd" opacity=".07"/><circle cx="528" cy="144" r="1.5" fill="#0277bd" opacity=".07"/><circle cx="0" cy="192" r="1.5" fill="#0277bd" opacity=".07"/><circle cx="48" cy="192" r="1.5" fill="#0277bd" opacity=".07"/><circle cx="96" cy="192" r="1.5" fill="#0277bd" opacity=".07"/><circle cx="144" cy="192" r="1.5" fill="#0277bd" opacity=".07"/><circle cx="192" cy="192" r="1.5" fill="#0277bd" opacity=".07"/><circle cx="240" cy="192" r="1.5" fill="#0277bd" opacity=".07"/><circle cx="288" cy="192" r="1.5" fill="#0277bd" opacity=".07"/><circle cx="336" cy="192" r="1.5" fill="#0277bd" opacity=".07"/><circle cx="384" cy="192" r="1.5" fill="#0277bd" opacity=".07"/><circle cx="432" cy="192" r="1.5" fill="#0277bd" opacity=".07"/><circle cx="480" cy="192" r="1.5" fill="#0277bd" opacity=".07"/><circle cx="528" cy="192" r="1.5" fill="#0277bd" opacity=".07"/><circle cx="0" cy="240" r="1.5" fill="#0277bd" opacity=".07"/><circle cx="48" cy="240" r="1.5" fill="#0277bd" opacity=".07"/><circle cx="96" cy="240" r="1.5" fill="#0277bd" opacity=".07"/><circle cx="144" cy="240" r="1.5" fill="#0277bd" opacity=".07"/><circle cx="192" cy="240" r="1.5" fill="#0277bd" opacity=".07"/><circle cx="240" cy="240" r="1.5" fill="#0277bd" opacity=".07"/><circle cx="288" cy="240" r="1.5" fill="#0277bd" opacity=".07"/><circle cx="336" cy="240" r="1.5" fill="#0277bd" opacity=".07"/><circle cx="384" cy="240" r="1.5" fill="#0277bd" opacity=".07"/><circle cx="432" cy="240" r="1.5" fill="#0277bd" opacity=".07"/><circle cx="480" cy="240" r="1.5" fill="#0277bd" opacity=".07"/><circle cx="528" cy="240" r="1.5" fill="#0277bd" opacity=".07"/><circle cx="0" cy="288" r="1.5" fill="#0277bd" opacity=".07"/><circle cx="48" cy="288" r="1.5" fill="#0277bd" opacity=".07"/><circle cx="96" cy="288" r="1.5" fill="#0277bd" opacity=".07"/><circle cx="144" cy="288" r="1.5" fill="#0277bd" opacity=".07"/><circle cx="192" cy="288" r="1.5" fill="#0277bd" opacity=".07"/><circle cx="240" cy="288" r="1.5" fill="#0277bd" opacity=".07"/><circle cx="288" cy="288" r="1.5" fill="#0277bd" opacity=".07"/><circle cx="336" cy="288" r="1.5" fill="#0277bd" opacity=".07"/><circle cx="384" cy="288" r="1.5" fill="#0277bd" opacity=".07"/><circle cx="432" cy="288" r="1.5" fill="#0277bd" opacity=".07"/><circle cx="480" cy="288" r="1.5" fill="#0277bd" opacity=".07"/><circle cx="528" cy="288" r="1.5" fill="#0277bd" opacity=".07"/><circle cx="0" cy="336" r="1.5" fill="#0277bd" opacity=".07"/><circle cx="48" cy="336" r="1.5" fill="#0277bd" opacity=".07"/><circle cx="96" cy="336" r="1.5" fill="#0277bd" opacity=".07"/><circle cx="144" cy="336" r="1.5" fill="#0277bd" opacity=".07"/><circle cx="192" cy="336" r="1.5" fill="#0277bd" opacity=".07"/><circle cx="240" cy="336" r="1.5" fill="#0277bd" opacity=".07"/><circle cx="288" cy="336" r="1.5" fill="#0277bd" opacity=".07"/><circle cx="336" cy="336" r="1.5" fill="#0277bd" opacity=".07"/><circle cx="384" cy="336" r="1.5" fill="#0277bd" opacity=".07"/><circle cx="432" cy="336" r="1.5" fill="#0277bd" opacity=".07"/><circle cx="480" cy="336" r="1.5" fill="#0277bd" opacity=".07"/><circle cx="528" cy="336" r="1.5" fill="#0277bd" opacity=".07"/><circle cx="0" cy="384" r="1.5" fill="#0277bd" opacity=".07"/><circle cx="48" cy="384" r="1.5" fill="#0277bd" opacity=".07"/><circle cx="96" cy="384" r="1.5" fill="#0277bd" opacity=".07"/><circle cx="144" cy="384" r="1.5" fill="#0277bd" opacity=".07"/><circle cx="192" cy="384" r="1.5" fill="#0277bd" opacity=".07"/><circle cx="240" cy="384" r="1.5" fill="#0277bd" opacity=".07"/><circle cx="288" cy="384" r="1.5" fill="#0277bd" opacity=".07"/><circle cx="336" cy="384" r="1.5" fill="#0277bd" opacity=".07"/><circle cx="384" cy="384" r="1.5" fill="#0277bd" opacity=".07"/><circle cx="432" cy="384" r="1.5" fill="#0277bd" opacity=".07"/><circle cx="480" cy="384" r="1.5" fill="#0277bd" opacity=".07"/><circle cx="528" cy="384" r="1.5" fill="#0277bd" opacity=".07"/><circle cx="0" cy="432" r="1.5" fill="#0277bd" opacity=".07"/><circle cx="48" cy="432" r="1.5" fill="#0277bd" opacity=".07"/><circle cx="96" cy="432" r="1.5" fill="#0277bd" opacity=".07"/><circle cx="144" cy="432" r="1.5" fill="#0277bd" opacity=".07"/><circle cx="192" cy="432" r="1.5" fill="#0277bd" opacity=".07"/><circle cx="240" cy="432" r="1.5" fill="#0277bd" opacity=".07"/><circle cx="288" cy="432" r="1.5" fill="#0277bd" opacity=".07"/><circle cx="336" cy="432" r="1.5" fill="#0277bd" opacity=".07"/><circle cx="384" cy="432" r="1.5" fill="#0277bd" opacity=".07"/><circle cx="432" cy="432" r="1.5" fill="#0277bd" opacity=".07"/><circle cx="480" cy="432" r="1.5" fill="#0277bd" opacity=".07"/><circle cx="528" cy="432" r="1.5" fill="#0277bd" opacity=".07"/><circle cx="0" cy="480" r="1.5" fill="#0277bd" opacity=".07"/><circle cx="48" cy="480" r="1.5" fill="#0277bd" opacity=".07"/><circle cx="96" cy="480" r="1.5" fill="#0277bd" opacity=".07"/><circle cx="144" cy="480" r="1.5" fill="#0277bd" opacity=".07"/><circle cx="192" cy="480" r="1.5" fill="#0277bd" opacity=".07"/><circle cx="240" cy="480" r="1.5" fill="#0277bd" opacity=".07"/><circle cx="288" cy="480" r="1.5" fill="#0277bd" opacity=".07"/><circle cx="336" cy="480" r="1.5" fill="#0277bd" opacity=".07"/><circle cx="384" cy="480" r="1.5" fill="#0277bd" opacity=".07"/><circle cx="432" cy="480" r="1.5" fill="#0277bd" opacity=".07"/><circle cx="480" cy="480" r="1.5" fill="#0277bd" opacity=".07"/><circle cx="528" cy="480" r="1.5" fill="#0277bd" opacity=".07"/><circle cx="0" cy="528" r="1.5" fill="#0277bd" opacity=".07"/><circle cx="48" cy="528" r="1.5" fill="#0277bd" opacity=".07"/><circle cx="96" cy="528" r="1.5" fill="#0277bd" opacity=".07"/><circle cx="144" cy="528" r="1.5" fill="#0277bd" opacity=".07"/><circle cx="192" cy="528" r="1.5" fill="#0277bd" opacity=".07"/><circle cx="240" cy="528" r="1.5" fill="#0277bd" opacity=".07"/><circle cx="288" cy="528" r="1.5" fill="#0277bd" opacity=".07"/><circle cx="336" cy="528" r="1.5" fill="#0277bd" opacity=".07"/><circle cx="384" cy="528" r="1.5" fill="#0277bd" opacity=".07"/><circle cx="432" cy="528" r="1.5" fill="#0277bd" opacity=".07"/><circle cx="480" cy="528" r="1.5" fill="#0277bd" opacity=".07"/><circle cx="528" cy="528" r="1.5" fill="#0277bd" opacity=".07"/>

  <!-- Decorative circles -->
  <circle cx="256" cy="260" r="155" fill="#0277bd" opacity=".06"/>
  <circle cx="256" cy="260" r="120" fill="#0277bd" opacity=".08"/>

  <!-- Body/outfit -->
  <g filter="url(#shadow)">
    
        <path d="M186,510 Q186,410 214,370 L256,390 L298,370 Q326,410 326,510" fill="rgb(154,201,229)"/>
        <path d="M214,370 Q201,350 186,390 L186,510" fill="rgb(78,160,209)"/>
        <path d="M298,370 Q311,350 326,390 L326,510" fill="rgb(78,160,209)"/>
      
  </g>

  <!-- Hair (behind head) -->
  <g>
    
        <ellipse cx="256" cy="170" rx="46" ry="48" fill="rgb(1,83,132)"/>
        <path d="M210,170 L214,215 Q208,230 218,240" fill="rgb(1,83,132)"/>
        <path d="M302,170 L298,215 Q304,230 294,240" fill="rgb(1,83,132)"/>
        <path d="M211,170 Q256,122 301,170" fill="rgb(1,83,132)"/>
      
  </g>

  <!-- Head / face -->
  <ellipse cx="256" cy="210" rx="68" ry="72" fill="url(#faceGrad)" filter="url(#shadow)"/>

  <!-- Cheeks -->
  <ellipse cx="214" cy="232" rx="14" ry="8" fill="#f08888" opacity=".3"/>
  <ellipse cx="298" cy="232" rx="14" ry="8" fill="#f08888" opacity=".3"/>

  <!-- Eyes -->
  
        <ellipse cx="236" cy="198" rx="10" ry="9" fill="#2a2a2a"/>
        <ellipse cx="276" cy="198" rx="10" ry="9" fill="#2a2a2a"/>
        <ellipse cx="234" cy="196" rx="3.5" ry="3" fill="white" opacity=".7"/>
        <ellipse cx="274" cy="196" rx="3.5" ry="3" fill="white" opacity=".7"/>
        <path d="M226,187 Q236,183 246,187" stroke="#2a2a2a" stroke-width="2" fill="none"/>
        <path d="M266,187 Q276,183 286,187" stroke="#2a2a2a" stroke-width="2" fill="none"/>
      

  <!-- Nose -->
  <path d="M251,220 Q258,232 264,226" stroke="#c89070" stroke-width="1.5" fill="none" stroke-linecap="round"/>

  <!-- Mouth -->
  <path d="M242,242 Q256,254 270,242" stroke="#2a2a2a" stroke-width="2.5" fill="none" stroke-linecap="round"/>

  <!-- Accessory on face/head -->
  
  
  
  
  

  <!-- Camera as neck accessory for kiyosumi -->
  

  <!-- Prop held in front -->
  <g transform="translate(196, -10)">
        <rect x="64" y="235" width="32" height="55" rx="7" fill="#222"/>
        <rect x="68" y="240" width="24" height="42" rx="3" fill="rgb(154,201,229)"/>
        <circle cx="80" cy="286" r="4" fill="#444"/>
        <rect x="75" y="242" width="10" height="2" rx="1" fill="#444"/>
      </g>
  

  <!-- Bottom color bar -->
  <rect x="0" y="460" width="512" height="52" fill="#0277bd"/>
  <rect x="0" y="457" width="512" height="3" fill="rgb(2,95,151)"/>
  <circle cx="40" cy="486" r="5" fill="white" opacity=".25"/><circle cx="102" cy="486" r="5" fill="white" opacity=".25"/><circle cx="164" cy="486" r="5" fill="white" opacity=".25"/><circle cx="226" cy="486" r="5" fill="white" opacity=".25"/><circle cx="288" cy="486" r="5" fill="white" opacity=".25"/><circle cx="350" cy="486" r="5" fill="white" opacity=".25"/><circle cx="412" cy="486" r="5" fill="white" opacity=".25"/><circle cx="474" cy="486" r="5" fill="white" opacity=".25"/>
</svg>